<svg xmlns="http://www.w3.org/2000/svg" width="500" height="500" viewBox="0 0 375 375"><defs><clipPath id="a"><path d="M43.5 140h288v74h-288Zm0 0"/></clipPath><clipPath id="b"><path d="M267 82.25h50V132h-50Zm0 0"/></clipPath></defs><path fill="currentColor" d="M84.727 168.953c-.09 2.008-.145 4.031-.118 6.055a37 37 0 0 0-1.199 2.504c.317-2.89.766-5.754 1.317-8.559m41.257-63.39c-1.836 2.05-3.496 4.335-5.011 6.824-3.45 1.734-6.63 3.613-9.516 5.64 4.434-4.586 9.3-8.777 14.527-12.465Zm132.04 12.449c-2.887-2.024-6.079-3.918-9.532-5.64a46 46 0 0 0-5.054-6.884c4.738 3.34 9.23 7.102 13.402 11.282.402.386.793.824 1.183 1.242Zm26.847 56.984c.043-2.055-.016-4.078-.117-6.101.55 2.804.969 5.625 1.285 8.488a27 27 0 0 0-1.168-2.387m-.406 35.309c-.215-3.86-1.297-7.621-3.203-11.278 1.906-6.722 3.074-13.562 3.465-20.402a27 27 0 0 1 1.921 7.488c.012.942.055 1.895.055 2.852 0 7.258-.765 14.398-2.238 21.34m-29.922 53.035c.246-.36.46-.735.68-1.113.808-.606 1.59-1.243 2.382-1.88-.261.262-.507.551-.765.81-.75.753-1.531 1.46-2.297 2.183m-142.727-3.05c.797.651 1.59 1.304 2.399 1.91.215.374.45.75.691 1.128-.765-.723-1.531-1.433-2.281-2.172-.273-.289-.535-.578-.809-.867Zm-16.968-95.388c.086 6.653.925 13.477 2.57 20.446q.199.782.39 1.562a52 52 0 0 0-2.64 2.473c-2.543 2.543-4.637 5.176-6.254 7.851a92.4 92.4 0 0 1-3.105-20.82c2.062-4.05 5.113-7.91 9.039-11.512m-5.633-11.683c1.98-3.817 4.855-7.43 8.508-10.785-1.836 6.476-2.801 13.257-2.891 20.242-.996.867-1.95 1.75-2.844 2.633-2.511 2.53-4.578 5.101-6.238 7.75a89 89 0 0 1 .852-11.914 105 105 0 0 1 2.613-7.926m15.555-27.531a71 71 0 0 0-1.977 3.675c-.781.68-1.531 1.344-2.238 2.051a93 93 0 0 1 4.215-5.726m12.39-5.739c-4.578 2.328-8.648 4.871-12.16 7.606a75 75 0 0 1 3.656-5.989c3.262-2.671 7.047-5.144 11.25-7.359a56 56 0 0 0-2.746 5.742m21.852-13.375a52 52 0 0 0-2.34 5.785c-2.918.852-5.75 1.793-8.492 2.805-3.352 1.258-6.485 2.586-9.43 4.02a52 52 0 0 1 3.031-5.946c5.184-2.574 10.977-4.812 17.23-6.664Zm-7.93-4.41a92 92 0 0 1 4.52-2.644c3.421-1.579 7.136-2.98 11.062-4.18-2.715 2.777-5.039 6.058-6.988 9.86-6.04 1.75-11.684 3.847-16.781 6.245 2.351-3.586 5.097-6.691 8.187-9.28Zm17.36-8.531a7 7 0 0 0-.782.219c.32-.133.637-.247.953-.364a1.4 1.4 0 0 0-.172.145Zm17.46-3.586a120 120 0 0 0-15.05 2.922.8.8 0 0 0 .03-.32 100 100 0 0 1 16.407-4.278c-.492.504-.953 1.07-1.387 1.676m52.727 2.89a120 120 0 0 0-15.063-2.917 15 15 0 0 0-1.343-1.649c5.586.969 11.074 2.371 16.39 4.234a.5.5 0 0 0 .016.332m2.351.637c-.042-.043-.101-.086-.156-.144.317.132.649.246.965.375-.258-.07-.535-.157-.809-.23Zm29.75 25.578a112 112 0 0 0-9.414-4.004 136 136 0 0 0-8.492-2.804 55 55 0 0 0-2.355-5.797c6.254 1.863 12.043 4.09 17.215 6.68a51 51 0 0 1 3.046 5.925m10.067 2.371a72 72 0 0 1 3.668 5.989c-3.508-2.719-7.567-5.266-12.145-7.578a55 55 0 0 0-2.757-5.754c4.199 2.226 7.968 4.672 11.234 7.343m5.863 7.797a67 67 0 0 0-2.008-3.761 111 111 0 0 1 4.348 5.87 53 53 0 0 0-2.34-2.109m10.86 35.989a73 73 0 0 0-2.86-2.649c-.101-7.055-1.082-13.894-2.945-20.43 3.652 3.383 6.527 7.028 8.535 10.887a99 99 0 0 1 2.64 8.113c.551 3.918.825 7.852.84 11.813-1.648-2.645-3.71-5.219-6.21-7.734m-3.524 24.074a43 43 0 0 0-2.383-2.227c.16-.61.317-1.215.45-1.808 1.66-6.97 2.496-13.793 2.57-20.43a34 34 0 0 1 1.676 1.605c3.191 3.18 5.644 6.493 7.378 9.875-.23 7.098-1.316 14.211-3.222 21.211-1.645-2.82-3.813-5.566-6.469-8.226m2.266 20.46c-1.559-2.632-3.594-5.179-6.063-7.663a75 75 0 0 0-2.613-2.43c1.441-3.773 2.7-7.563 3.723-11.367.636.594 1.273 1.187 1.894 1.793 2.902 2.906 5.184 5.914 6.844 8.98a97 97 0 0 1-3.785 10.688Zm7.035 3.962a93 93 0 0 1-3.164 7.488c-.332-3.484-1.387-6.895-3.176-10.223a97 97 0 0 0 3.84-10.437c1.719 3.629 2.586 7.36 2.586 11.16 0 .668-.028 1.348-.086 2.012m-3.063 9.847a96 96 0 0 0 1.504-3.109 121 121 0 0 1-1.547 4.422c.028-.445.043-.867.043-1.313m-44.421 47.946a14.1 14.1 0 0 0 1.113-5.063c6.629-3.453 13.515-7.894 20.058-13.488-.187 2.848-1.082 5.668-2.613 8.398-5.75 4.239-12.101 7.594-18.559 10.153Zm-9.891 10.785c-.09.031-.176.074-.262.09 1.488-.957 2.86-1.938 4.086-2.996a67 67 0 0 0 6.195-2.196 104 104 0 0 1-10.02 5.102Zm-86.305-2.95c1.184 1.044 2.512 2.024 3.957 2.95a.2.2 0 0 1-.086-.028 99 99 0 0 1-9.996-5.105 64 64 0 0 0 6.125 2.184Zm-27.12-26.386c6.542 5.582 13.429 10.02 20.058 13.476.043 1.72.406 3.41 1.082 5.059-6.438-2.574-12.793-5.914-18.543-10.148-1.528-2.735-2.426-5.555-2.598-8.387ZM89.23 223.605c0 .45.028.883.043 1.348a107 107 0 0 1-1.574-4.527 63 63 0 0 0 1.531 3.18Zm12.665-23.87c-.91.808-1.79 1.605-2.614 2.445-2.484 2.472-4.492 5.03-6.05 7.632a97 97 0 0 1-3.899-11.046c2.094-3.746 5.07-7.301 8.793-10.625a115 115 0 0 0 3.77 11.593Zm12.304-22.239a160 160 0 0 0 2.946 12.234c-5.442 2.73-10.266 5.825-14.325 9.223a114 114 0 0 1-3.742-11.637c4.203-3.601 9.29-6.882 15.121-9.82m-.605-45.851c-1.184 5.468-1.89 11.367-2.024 17.683-.027.797-.011 1.594-.011 2.387-5.907 2.95-11.149 6.289-15.555 9.965.187-7.172 1.3-14.098 3.351-20.707 4-3.399 8.793-6.52 14.239-9.328m.332-1.532c-5.301 2.692-9.98 5.653-13.938 8.836a75 75 0 0 1 3.742-8.937c3.641-3.121 7.973-5.985 12.868-8.559a70 70 0 0 0-2.672 8.66m20.16-7.836a132 132 0 0 0-11.887 4.09 119 119 0 0 0-6.93 3.082c.778-3.082 1.72-6.031 2.829-8.777 5.433-2.734 11.539-5.106 18.14-7.07a72 72 0 0 0-2.152 8.675m25.344-13.636c-.446 2.718-.82 5.566-1.098 8.504-8.043 1.113-15.781 2.703-23.031 4.77.605-3.11 1.355-6 2.265-8.704 6.817-1.965 14.153-3.5 21.864-4.57m1.386-6.707a90 90 0 0 0-1.199 5.566c-7.523 1.027-14.785 2.516-21.617 4.453a53 53 0 0 1 2.453-5.812c6.371-1.809 13.215-3.227 20.363-4.207m23.352-2.735a177 177 0 0 0-21.879 1.387c1.113-3.828 2.516-7.055 4.191-9.469 5.73-.754 11.653-1.14 17.688-1.172Zm23.035 1.387a177 177 0 0 0-21.906-1.387v-9.254c6.066.016 11.984.407 17.676 1.13 1.703 2.429 3.09 5.652 4.23 9.51Zm2.656 6.898a72 72 0 0 0-1.195-5.566c7.16.984 13.992 2.398 20.36 4.207a54 54 0 0 1 2.472 5.828c-6.848-1.953-14.098-3.441-21.637-4.469m24.32 14.387c-7.19-2.039-14.917-3.644-23.019-4.758-.289-2.933-.648-5.77-1.11-8.472 7.723 1.054 15.063 2.605 21.88 4.554a71 71 0 0 1 2.25 8.676Zm20.032 7.504c-5.676-2.746-11.984-5.145-18.816-7.14-.579-3.083-1.286-5.946-2.153-8.65 6.613 1.981 12.707 4.34 18.137 7.06 1.113 2.746 2.05 5.668 2.832 8.73m1.344.652a71 71 0 0 0-2.672-8.59c4.894 2.56 9.215 5.422 12.851 8.547a73 73 0 0 1 3.727 8.848c-3.984-3.195-8.664-6.16-13.906-8.805m2.382 21.676c0-.781 0-1.578-.015-2.375-.145-6.39-.852-12.375-2.063-17.898 5.43 2.789 10.223 5.93 14.207 9.34 2.082 6.68 3.239 13.664 3.426 20.894-4.422-3.66-9.648-7-15.555-9.96Zm-5.605 38.027a149 149 0 0 0 2.918-12.074c5.852 2.965 10.918 6.274 15.094 9.89a112 112 0 0 1-3.668 11.423c-4.074-3.414-8.899-6.492-14.344-9.239m9.434 20.458c-3.786-3.165-8.262-6.043-13.317-8.586a158 158 0 0 0 3.567-10.774c5.43 2.746 10.21 5.84 14.226 9.254a125 125 0 0 1-4.476 10.106m9.168 10.484q-2.233-3.815-5.848-7.461a50 50 0 0 0-2.441-2.254 125 125 0 0 0 4.507-10.078 61 61 0 0 1 2.239 2.094c2.64 2.66 4.734 5.379 6.308 8.183a104 104 0 0 1-4.765 9.516m-58.79 53.73a8.4 8.4 0 0 0-.695-2.543c8.203-3.168 15.871-7.027 22.934-11.539.894 1.793 1.36 3.645 1.402 5.535-8.867 4.555-17.246 7.305-23.64 8.547Zm-.421 3.371a7.7 7.7 0 0 0 .449-2.214c6.367-1.243 14.703-3.934 23.582-8.43-.129 1.707-.606 3.398-1.414 5.031-7.785 2.938-15.613 4.774-22.617 5.613m-5.746 6.418a19 19 0 0 0 2.671-2.007c5.836.386 12.16-.32 18.399-1.938-1.703 1.242-3.64 2.414-5.734 3.469-4.825 1.172-8.708 1.2-15.336.476m-34.965 3.227c4.09 1.184 8.797 1.863 13.722 1.863 2.438 0 4.793-.16 7.032-.449.75.738 1.53 1.348 2.324 1.793-3.09.277-6.207.434-9.356.434-6.906 0-13.707-.692-20.336-2.024 2.313-.203 4.45-.738 6.614-1.617m-10.137-5.234a19 19 0 0 0 2.672 2.007c-6.672.723-10.559.696-15.41-.492-2.094-1.054-4.016-2.21-5.719-3.469 6.254 1.633 12.61 2.34 18.457 1.954m-3.566-6.625c.043.738.187 1.488.449 2.214-7.008-.855-14.848-2.675-22.633-5.625-.809-1.636-1.285-3.312-1.398-5.02 8.867 4.485 17.199 7.188 23.582 8.43Zm-22.227-15.27c7.078 4.543 14.746 8.402 22.95 11.555a7.9 7.9 0 0 0-.708 2.558c-6.398-1.257-14.762-4.004-23.64-8.558.043-1.91.53-3.762 1.398-5.555M97.91 221.801c-1.66 3.12-2.629 6.332-2.887 9.629a87 87 0 0 1-4.652-8.067c.043-3.761.98-7.418 2.73-10.933a102 102 0 0 0 4.81 9.37Zm8.938-10.86a56 56 0 0 0-2.47 2.27c-2.394 2.414-4.347 4.902-5.831 7.445a104 104 0 0 1-4.754-9.5c2.023-3.629 4.91-7.07 8.535-10.277a128 128 0 0 0 4.52 10.062m14.199-9.355c-5.07 2.543-9.547 5.422-13.332 8.59a125 125 0 0 1-4.477-10.094c3.973-3.355 8.766-6.45 14.239-9.21a154 154 0 0 0 3.57 10.714m16.086-18.305c.781 3.656 1.66 7.36 2.644 11.074-6.441 1.868-12.379 4.122-17.722 6.723a167 167 0 0 1-3.551-10.71c5.574-2.72 11.844-5.106 18.629-7.087m-2.543-13.68a231 231 0 0 0 2.285 12.524c-6.773 1.965-13.059 4.336-18.688 7.098a160 160 0 0 1-2.949-12.246c5.809-2.836 12.305-5.32 19.352-7.375Zm-2.18-24.132c.145 7.23.824 14.937 2.008 22.96-7.031 2.04-13.547 4.497-19.41 7.36-1.473-7.75-2.25-15.383-2.34-22.715 5.906-2.922 12.535-5.465 19.742-7.605m.39-13.664c-.331 3.773-.46 7.75-.433 11.87-7.105 2.083-13.719 4.598-19.683 7.477 0-.593 0-1.199.015-1.793.145-6.578.895-12.738 2.196-18.379 5.703-2.82 12.058-5.304 18.96-7.386a98 98 0 0 0-1.054 8.21Zm24.68 6.61c-8.433 1.14-16.476 2.804-23.988 4.929-.027-3.918.117-7.75.434-11.453.262-3.02.652-5.914 1.129-8.63 7.234-2.128 15.02-3.788 23.164-4.933-.563 6.48-.781 13.363-.739 20.086Zm26.688-21.935v20.141c-8.836.027-17.473.606-25.762 1.676-.015-7.172.246-13.953.809-20.113 8.027-1.07 16.39-1.66 24.953-1.704m0-9.53v8.402c-8.418.027-16.766.593-24.84 1.648.305-2.98.68-5.844 1.156-8.488 7.582-.996 15.528-1.532 23.684-1.563Zm0-1.141c-8.027.027-15.883.546-23.48 1.53a79 79 0 0 1 1.257-5.55c7.149-.941 14.598-1.434 22.223-1.46Zm1.129 0v-5.48c7.64.026 15.09.519 22.238 1.444.477 1.735.883 3.602 1.258 5.567a188 188 0 0 0-23.496-1.531m0 9.543v-8.403c8.172.016 16.117.551 23.71 1.547.466 2.66.84 5.496 1.141 8.473-7.957-1.04-16.304-1.59-24.851-1.617m25.777 22.945c-8.273-1.082-16.926-1.66-25.777-1.676v-20.14c8.605.027 16.969.605 24.969 1.644.578 6.176.836 12.984.808 20.172m24.492-6.406c.32 3.703.45 7.535.418 11.453-7.492-2.125-15.539-3.79-23.972-4.93.031-6.754-.172-13.648-.75-20.156 8.175 1.129 15.93 2.762 23.136 4.828a99 99 0 0 1 1.168 8.805m1.547 11.785c.043-4.121-.101-8.098-.418-11.871a102 102 0 0 0-1.086-8.371c6.903 2.054 13.258 4.511 18.95 7.332 1.312 5.71 2.078 11.925 2.238 18.593.015.594 0 1.2.015 1.793-5.964-2.89-12.582-5.394-19.699-7.476m-2.066 24.855c1.215-8.082 1.89-15.832 2.035-23.12 7.164 2.124 13.793 4.687 19.73 7.636-.074 7.375-.882 15.082-2.355 22.887-5.848-2.875-12.375-5.348-19.41-7.403m-2.442 13.606a228 228 0 0 0 2.27-12.407c.852.247 1.719.48 2.57.739 6.094 1.922 11.696 4.152 16.766 6.652a154 154 0 0 1-2.902 12.102c-5.649-2.746-11.914-5.133-18.704-7.086m-2.886 12.218c.98-3.73 1.863-7.445 2.64-11.117 6.774 1.95 13.028 4.336 18.633 7.082a166 166 0 0 1-3.554 10.774c-5.344-2.602-11.293-4.871-17.72-6.739Zm13.879 16.223a162 162 0 0 1-7.54 14.91c-4.331-2.125-9.156-3.965-14.37-5.48a263 263 0 0 0 4.39-12.883 306 306 0 0 0 3.367-11.656c6.383 1.836 12.29 4.078 17.602 6.68-1.082 2.835-2.207 5.656-3.45 8.43Zm3.984 22.227c-3.004-2.504-6.543-4.79-10.512-6.813a167 167 0 0 0 7.567-14.949 156 156 0 0 0 3.422-8.387c5.011 2.543 9.445 5.406 13.171 8.559-3.77 7.418-8.347 14.664-13.648 21.59m2.816 2.558a40 40 0 0 0-1.964-1.824c5.3-6.91 9.894-14.14 13.675-21.559.754.68 1.489 1.348 2.168 2.04 2.528 2.53 4.52 5.12 5.993 7.78-.391.68-.778 1.36-1.184 2.024a109.8 109.8 0 0 1-13.777 17.871c-1.243-2.183-2.875-4.28-4.91-6.332Zm-19.003 18.969a34 34 0 0 0-1.227-1.113c6.195-5.508 12.059-11.739 17.355-18.477.075-.101.145-.219.22-.304.648.562 1.269 1.14 1.847 1.718 2.066 2.07 3.683 4.211 4.894 6.395-5.847 6.027-12.449 11.422-19.683 16.133-.867-1.489-2.008-2.934-3.406-4.352m-22.227 14.3c-.086-.085-.16-.144-.246-.214 6.945-3.805 13.836-8.719 20.39-14.445.45.375.883.765 1.286 1.172q2.013 2.038 3.265 4.164c-7.078 4.523-14.746 8.386-22.949 11.539a11.5 11.5 0 0 0-1.746-2.215Zm-69.031-14.69c6.57 5.742 13.472 10.656 20.422 14.46-.086.086-.176.145-.246.23a12.3 12.3 0 0 0-1.762 2.216c-8.203-3.153-15.86-7.028-22.934-11.54 1.098-1.894 2.63-3.687 4.52-5.367Zm-18.414-19.52c.09.101.16.219.246.32 5.285 6.738 11.148 12.969 17.344 18.465-.418.375-.836.75-1.243 1.125-1.398 1.402-2.539 2.863-3.406 4.352-7.223-4.711-13.82-10.122-19.668-16.133 1.574-2.863 3.856-5.598 6.727-8.13Zm-.676-.895a40 40 0 0 0-1.965 1.836c-2.05 2.04-3.668 4.149-4.91 6.305a107.3 107.3 0 0 1-13.762-17.844c-.422-.664-.797-1.344-1.2-2.023 1.919-3.473 4.68-6.754 8.161-9.82 3.797 7.406 8.375 14.632 13.676 21.546m3.812-22.484a165 165 0 0 0 7.551 14.937c-3.972 2.036-7.508 4.32-10.5 6.81-5.297-6.911-9.89-14.157-13.66-21.575 3.695-3.11 8.129-5.973 13.184-8.516a181 181 0 0 0 3.425 8.344m18.555-3.918a284 284 0 0 0 4.379 12.883c-5.215 1.504-10.04 3.355-14.371 5.48a165 165 0 0 1-7.54-14.91 160 160 0 0 1-3.421-8.398c5.27-2.559 11.176-4.817 17.605-6.668 1.024 3.832 2.121 7.722 3.348 11.613m17.895-16.05c1.14 8.745 2.468 17.277 3.941 25.273-5.703.78-11.148 1.894-16.246 3.312a271 271 0 0 1-7.77-24.48c6.254-1.762 12.985-3.137 20.075-4.106Zm-1.473-12.524c.39 3.804.836 7.62 1.312 11.383-7.09.953-13.878 2.324-20.218 4.105-.965-3.66-1.848-7.36-2.64-11.078 6.698-1.879 13.937-3.383 21.546-4.41m-1.27-13.965c.2 2.644.403 5.074.606 7.215.156 1.863.348 3.742.547 5.61-7.625 1.01-14.903 2.5-21.692 4.394-.879-4.18-1.66-8.356-2.293-12.535 7.102-2.012 14.774-3.586 22.832-4.684m-.074-1.129c-8.058 1.07-15.754 2.633-22.933 4.656-1.184-7.808-1.907-15.543-2.036-22.976 7.438-2.14 15.48-3.832 23.973-4.989.07 8.403.504 16.528.996 23.309m25.676-1.723c-8.488.016-16.793.567-24.766 1.594-.578-7.996-.925-15.848-.98-23.308 8.215-1.102 16.851-1.665 25.746-1.692Zm25.91 1.637c-7.957-1.043-16.277-1.605-24.781-1.637v-23.406c8.851.012 17.504.59 25.777 1.676-.058 7.476-.406 15.34-.996 23.367m.926.113c.488-6.793.906-14.922.996-23.363 8.434 1.14 16.477 2.816 23.973 4.973-.145 7.46-.868 15.254-2.051 23.105-7.164-2.039-14.863-3.629-22.918-4.715m-1.23 13.926c.187-1.867.374-3.746.55-5.61.188-2.124.39-4.527.59-7.16 7.957 1.087 15.629 2.692 22.832 4.758a233 233 0 0 1-2.293 12.407c-6.789-1.895-14.066-3.383-21.68-4.395Zm-1.442 12.524q.717-5.665 1.328-11.41c7.567 1.027 14.817 2.488 21.559 4.382a254 254 0 0 1-2.656 11.133c-6.356-1.781-13.125-3.152-20.231-4.105m-4.102 26.414a493 493 0 0 0 3.958-25.29c7.046.958 13.789 2.313 20.085 4.079a282 282 0 0 1-7.785 24.539c-5.097-1.434-10.554-2.547-16.258-3.328m6.094 26.882a90 90 0 0 0-11.453-2.375c1.82-6.878 3.566-14.82 5.172-23.394 5.629.766 11.016 1.867 16.059 3.27-3.079 8.242-6.415 15.859-9.778 22.5Zm10.73 4.032c-2.902-1.418-6.093-2.645-9.546-3.688 3.406-6.707 6.73-14.328 9.793-22.512 5.152 1.489 9.933 3.313 14.207 5.407a152.5 152.5 0 0 1-14.453 20.793Zm1.024.523a154 154 0 0 0 14.442-20.808c3.93 1.996 7.41 4.265 10.37 6.722-.09.117-.175.219-.261.332a142 142 0 0 1-17.316 18.438c-2.079-1.723-4.504-3.297-7.235-4.684m-11.09-3.183c3.364 1 6.496 2.168 9.313 3.527-5.153 6.133-10.742 11.742-16.692 16.703a33 33 0 0 0-4.433-1.738c3.855-4.54 7.883-10.903 11.812-18.492m-12.406-2.633c3.93.535 7.7 1.316 11.223 2.3-4 7.766-8.047 14.114-11.817 18.481a46 46 0 0 0-6.281-1.273c2.27-4.383 4.61-11.133 6.875-19.508m-13.285-.922c4.203.012 8.305.289 12.246.777-2.297 8.387-4.695 15.14-7.047 19.508a51 51 0 0 0-5.2-.305Zm-6.313 20.285c-2.351-4.367-4.75-11.121-7.03-19.508 3.898-.504 8-.765 12.214-.793v19.996a51 51 0 0 0-5.184.305m-7.48 1.418c-3.77-4.367-7.813-10.715-11.813-18.48a88 88 0 0 1 11.223-2.301c2.25 8.386 4.59 15.125 6.871 19.508a41 41 0 0 0-6.281 1.273m-5.617 2.082c-5.95-4.96-11.54-10.57-16.711-16.687 2.832-1.344 5.953-2.532 9.332-3.543 3.926 7.59 7.957 13.953 11.797 18.48-1.586.504-3.075 1.082-4.418 1.75m-18.485-17.062c-2.714 1.402-5.156 2.976-7.234 4.683a141 141 0 0 1-17.305-18.422 6 6 0 0 1-.273-.347c2.933-2.426 6.426-4.668 10.383-6.68 4.304 7.418 9.144 14.375 14.43 20.766Zm10.57-4.196c-3.437 1.028-6.644 2.258-9.53 3.676A152 152 0 0 1 134 226.5c4.246-2.082 9.027-3.89 14.195-5.395 3.063 8.157 6.383 15.778 9.778 22.47Zm12.637-2.719a89 89 0 0 0-11.437 2.375c-3.367-6.64-6.688-14.257-9.762-22.484 5.008-1.39 10.383-2.488 16.043-3.27 1.602 8.56 3.352 16.5 5.156 23.38Zm13.559-24.664v23.711c-4.3.032-8.488.32-12.52.825-1.832-6.883-3.609-14.82-5.226-23.38 5.676-.738 11.625-1.128 17.746-1.156m0-26.68v25.552c-6.164.015-12.188.417-17.95 1.156-1.503-8.012-2.843-16.555-3.984-25.274 7.016-.914 14.368-1.402 21.934-1.433Zm0-12.62v11.492c-7.582.015-14.973.508-22.078 1.418a448 448 0 0 1-1.344-11.395 191 191 0 0 1 23.422-1.515m0-1.13c-8.07.016-15.973.536-23.54 1.52a489 489 0 0 1-1.14-12.812c7.887-1.028 16.16-1.574 24.68-1.606Zm1.129 0V162.88c8.402.027 16.695.605 24.695 1.648a401 401 0 0 1-1.14 12.754c-7.57-.984-15.47-1.504-23.555-1.52Zm0 12.622V176.89c8.058.027 15.914.535 23.453 1.504a478 478 0 0 1-1.344 11.421 174 174 0 0 0-22.11-1.433Zm0 26.68v-25.551c7.539.015 14.902.508 21.965 1.418a487 487 0 0 1-3.985 25.304 142 142 0 0 0-17.98-1.172Zm0 1.128c6.11.028 12.058.403 17.777 1.141-1.617 8.574-3.394 16.512-5.242 23.41-4.031-.52-8.234-.808-12.535-.84Zm-23.86 51.414c-6.93-3.773-13.863-8.66-20.433-14.414 2.023-1.632 4.418-3.152 7.133-4.527a139 139 0 0 0 16.652 16.73 20.5 20.5 0 0 0-3.351 2.211Zm43.254-2.21c5.934-4.989 11.508-10.598 16.653-16.73 2.683 1.374 5.066 2.894 7.105 4.57-6.574 5.726-13.476 10.613-20.406 14.386a21 21 0 0 0-3.352-2.226m-8.187 24.972c-1.14-.262-2.238-.855-3.293-1.75a46 46 0 0 0 5.285-1.187c2.164.867 4.29 1.402 6.57 1.605-2.816.563-5.691 1-8.562 1.332m11.45-9.906c-4.302 4.324-13.43 7.113-23.22 7.113-9.793 0-18.906-2.789-23.222-7.113-1.676-1.676-2.528-3.469-2.528-5.305 0-6.87 11.551-12.449 25.75-12.449 9.79 0 18.918 2.805 23.22 7.125 1.69 1.68 2.542 3.473 2.542 5.324 0 1.836-.851 3.63-2.543 5.305ZM96.061 233.062c.06-3.468.938-6.84 2.54-10.09.277.489.55.97.855 1.458 4.055 6.593 8.809 12.71 14.152 18.308-1.285 2.543-2.023 5.16-2.21 7.836-5.532-4.96-10.774-10.758-15.337-17.512m16.407 18.465c.07-2.73.75-5.379 1.976-7.922a117.2 117.2 0 0 0 19.684 16.079c-.91 1.82-1.414 3.687-1.543 5.593-6.672-3.527-13.578-8.05-20.117-13.75m26.41 25.696a20.6 20.6 0 0 1-2.86-3.528c7.7 2.79 15.41 4.512 22.286 5.293.39.735.882 1.43 1.488 2.125-6.238.274-13.027-.695-19.598-2.66-.449-.406-.91-.812-1.316-1.23m16.61 9.586a65 65 0 0 1-3.22-1.2c3.626.403 7.364.172 12.97-.476a28 28 0 0 0 4.042 1.719c-3.078 1.043-6.152 1.359-9.906 1.011h-.047a87 87 0 0 1-3.84-1.054Zm58.488 0c-1.27.375-2.543.722-3.829 1.054h-.027c-3.754.348-6.8.032-9.863-.996a31 31 0 0 0 4.043-1.722c5.558.636 9.285.867 12.898.464a66 66 0 0 1-3.222 1.2m15.293-8.356c-6.57 1.965-13.344 2.934-19.555 2.66a12.6 12.6 0 0 0 1.488-2.125c6.848-.781 14.559-2.488 22.254-5.281a22.2 22.2 0 0 1-2.86 3.516c-.417.418-.878.824-1.327 1.23m7.613-13.16c-.117-1.922-.637-3.773-1.547-5.61 7.234-4.699 13.82-10.078 19.7-16.078 1.253 2.575 1.905 5.235 1.964 7.938-6.543 5.684-13.445 10.223-20.117 13.75m21.199-14.703c-.187-2.676-.926-5.293-2.223-7.84a109.4 109.4 0 0 0 14.18-18.32c.29-.489.563-.97.852-1.457 1.617 3.28 2.468 6.664 2.511 10.12-4.562 6.739-9.789 12.536-15.32 17.497m16.375-19.133c-.273-3.297-1.242-6.504-2.871-9.644 1.762-3.079 3.379-6.2 4.793-9.383 1.777 3.57 2.687 7.215 2.73 10.96a94 94 0 0 1-4.652 8.067m-3.797-45.156c-4.273-3.63-9.387-6.926-15.148-9.844 1.488-7.781 2.308-15.473 2.41-22.863 5.992 3.05 11.238 6.523 15.598 10.324 0 6.871-.836 13.941-2.555 21.168-.09.406-.203.812-.305 1.215m-50.226-91.7c3.074 2.762 5.687 6.16 7.87 10.165-6.269-1.735-12.968-3.079-19.96-4.02-1.024-3.687-2.309-6.91-3.899-9.469 5.59.782 10.946 1.895 15.989 3.325Zm-71.43.044c5.039-1.43 10.426-2.56 16.031-3.356-1.59 2.563-2.86 5.785-3.887 9.457-6.988.953-13.687 2.3-19.957 4.02 2.153-3.961 4.75-7.36 7.813-10.121m-50.488 90.44c-1.704-7.226-2.54-14.312-2.555-21.179 4.316-3.746 9.559-7.203 15.598-10.265.113 7.328.921 14.933 2.394 22.656-5.773 2.906-10.887 6.172-15.176 9.789l-.261-1Zm-12.739 26.708c0-3.977.97-7.852 2.805-11.55a98 98 0 0 0 3.941 10.816c-1.789 3.308-2.843 6.722-3.175 10.191a88 88 0 0 1-3.54-8.516 18 18 0 0 1-.03-.941Zm5.344 17.715a23 23 0 0 1-.621-3.485 91 91 0 0 0 4.422 7.344v.043c0 1.664.187 3.313.547 4.945a98 98 0 0 1-4.348-8.847m11.64 20.054a.56.56 0 0 0-.23-.16 98 98 0 0 1-4.316-6.406c-1.188-2.586-1.895-5.234-2.094-7.906 4.563 6.504 9.746 12.113 15.203 16.914.016 2.648.594 5.266 1.707 7.809-3.785-3.008-7.281-6.407-10.27-10.25Zm17.794 18.739c-1.489-1.418-2.79-2.88-3.871-4.383 5.558 3.777 11.566 6.797 17.648 9.14.836 1.575 1.965 3.094 3.395 4.583-4.653-1.606-9.114-3.7-13.145-6.215a120 120 0 0 1-4.027-3.125m128.37 0a112 112 0 0 1-4.144 3.195c-4.015 2.516-8.476 4.582-13.097 6.176 1.414-1.461 2.554-3.008 3.421-4.598 6.079-2.328 12.086-5.351 17.649-9.125-1.07 1.488-2.356 2.95-3.828 4.352Zm18.009-18.899a.5.5 0 0 0-.204.16c-3.003 3.86-6.511 7.258-10.296 10.282 1.113-2.563 1.691-5.18 1.707-7.824 5.457-4.801 10.64-10.41 15.207-16.887-.203 2.672-.926 5.304-2.094 7.894a104 104 0 0 1-4.32 6.375m7.062-11.047c.36-1.617.55-3.28.55-4.945a92 92 0 0 0 4.419-7.344 25 25 0 0 1-.606 3.454 101 101 0 0 1-4.363 8.835m3.84-91.12c-1.89-2.462-4.172-4.817-6.758-7.07a77 77 0 0 0-3.16-8.216c1.863 1.793 3.523 3.645 4.937 5.582 1.848 3.137 3.497 6.39 4.98 9.703Zm-31.25-35.801c-5.113-2.418-10.746-4.512-16.781-6.246-1.965-3.82-4.305-7.118-7.032-9.922 4.012 1.246 7.813 2.703 11.336 4.34a93 93 0 0 1 4.07 2.386c3.18 2.602 5.997 5.766 8.407 9.442m-46.414-23.41a13.6 13.6 0 0 1 1.848 1.808c-5.415-.652-11.004-1-16.723-1.027v-1.926c5.023.016 9.992.406 14.875 1.144Zm-16.004-1.157v1.938a147 147 0 0 0-16.707 1.039c.578-.692 1.2-1.301 1.848-1.82 4.851-.739 9.82-1.13 14.859-1.157m-87.473 50.606a42.6 42.6 0 0 1 4.856-5.48 73 73 0 0 0-3.18 8.316c-2.629 2.27-4.894 4.668-6.785 7.129a103 103 0 0 1 5.11-9.965Zm-13.906 49.55c.188-2.847.852-5.636 1.98-8.355.376 6.695 1.516 13.375 3.348 19.953q-2.813 5.184-3.336 10.672a103.4 103.4 0 0 1-2.02-20.328c0-.653.012-1.305.028-1.942m-1.762 1.696c0 .07.016.129.043.199 0 .016-.015.031-.015.047 0 27.715 10.789 53.785 30.37 73.394 19.587 19.606 45.61 30.391 73.31 30.391 57.128 0 103.617-46.516 103.675-103.7a.9.9 0 0 0 .07-.331c0-.914-.058-1.809-.144-2.707-.734-26.617-11.406-51.547-30.297-70.446-19.582-19.605-45.605-30.406-73.305-30.406-27.687 0-53.722 10.8-73.308 30.406-19.004 19.032-29.692 44.133-30.297 70.954-.074.738-.102 1.46-.102 2.199"/><g clip-path="url(#a)"><path fill="currentColor" d="M294.488 209.176c-1.574.133-2.586 1.187-2.265 2.344.316 1.171 1.847 2.007 3.422 1.878 11.003-.925 19.843-2.585 25.921-4.957 6.457-2.52 9.993-5.87 9.993-10.05 0-8.676-16.52-18.739-43.207-27.98-25.766-8.919-61.305-17.364-100.516-23.192-19.813-2.934-38.645-4.93-55.758-6.031-24.781-1.59-46.012-1.27-61.332.812-16.262 2.21-26.183 6.563-27.207 12.953-.059.379-.09.754-.09 1.113 0 3.602 2.688 7.364 7.656 11.164 4.782 3.63 11.743 7.375 20.493 11.075 1.445.61 3.191.304 3.898-.707.707-.996.117-2.297-1.328-2.922-8.219-3.469-14.703-6.938-19.02-10.235-3.812-2.906-5.878-5.613-5.878-7.996 0-.234.03-.449.058-.636.723-4.496 9.086-7.75 22.934-9.63 14.789-2.027 35.496-2.3 59.816-.753 16.926 1.086 35.555 3.066 55.094 5.972 38.734 5.739 73.77 14.055 99.086 22.817 24.375 8.445 39.469 17.047 39.469 23.8 0 2.587-2.559 4.813-7.235 6.637-5.504 2.141-13.691 3.657-24.004 4.524"/></g><g clip-path="url(#b)"><path fill="currentColor" fill-rule="evenodd" d="M291.79 82.79h.144c.98 12.94 11.293 23.276 24.218 24.245v.16c-12.925.97-23.238 11.309-24.218 24.25h-.145c-.984-12.941-11.293-23.28-24.219-24.25v-.16c12.926-.969 23.235-11.305 24.22-24.246"/></g><path fill="currentColor" fill-rule="evenodd" d="M316.543 127.438h.07c.407 5.511 4.793 9.906 10.282 10.312v.07c-5.489.407-9.875 4.801-10.282 10.297h-.07c-.406-5.496-4.797-9.89-10.297-10.297v-.07c5.5-.406 9.89-4.8 10.297-10.313"/><path fill="none" stroke="#231f20" stroke-width="8.453" d="m38.86 201.723 17.386-3.168c4.883-.89 7.785-5.086 6.895-9.97l-2.946-16.187c-.89-4.882-5.086-7.785-9.968-6.894l-17.391 3.164c-.582.11-.953.645-.848 1.23l5.645 30.985c.101.574.64.945 1.226.84Zm10.663-11.762a1.036 1.036 0 0 1-1.226-.836l-2.184-11.984a1.04 1.04 0 0 1 .852-1.227 1.04 1.04 0 0 1 1.219.852l2.18 11.98a1.033 1.033 0 0 1-.84 1.215Zm17.707 6.664 10.352-1.484c.578-.082.969-.602.887-1.18l-.836-5.828a1.04 1.04 0 0 1 .898-1.184c.578-.082 1.106.348 1.188.926l.828 5.785c.082.578.648.965 1.226.883l10.352-1.484c.586-.082.977-.606.895-1.184l-3.399-23.738c-.703-4.91-4.785-7.973-9.7-7.27l-10.058 1.442c-4.898.703-7.972 4.789-7.265 9.699l3.398 23.738c.082.578.656.961 1.234.879Zm9.872-19.652a1.04 1.04 0 0 1-1.196-.895l-.476-3.32a1.047 1.047 0 0 1 .898-1.196 1.04 1.04 0 0 1 1.184.899l.476 3.32a1.04 1.04 0 0 1-.886 1.192Zm22.679 15.218 16.875-1.77a.97.97 0 0 0 .844-.808l2.633-13.914c.086-.472.086-.855.039-1.312l-1.766-16.864c-.062-.593-.61-1-1.199-.937l-10.402 1.09a1.035 1.035 0 0 0-.93 1.156l2.098 20.047a1.03 1.03 0 0 1-.93 1.148 1.04 1.04 0 0 1-1.16-.93l-2.098-20.046c-.062-.59-.61-.996-1.191-.934l-10.399 1.086a1.04 1.04 0 0 0-.941 1.16l1.766 16.867c.058.551.128.833.308 1.274l5.461 13.066c.168.45.613.66.992.621Zm24.746-2.433 10.426-.793a1.04 1.04 0 0 0 .965-1.121l-2.387-31.403c-.047-.593-.582-1.015-1.164-.972l-10.43.793a1.045 1.045 0 0 0-.972 1.133l2.387 31.406c.046.582.593 1.004 1.175.957Zm14.157-1.125 17.652-.84c4.957-.234 8.39-4.012 8.156-8.969l-.781-16.433c-.234-4.957-4.012-8.391-8.965-8.157l-17.656.84a1.036 1.036 0 0 0-1.004 1.102l1.492 31.46a1.04 1.04 0 0 0 1.106.997Zm12.125-10.246a1.037 1.037 0 0 1-1.102-.992l-.578-12.168a1.044 1.044 0 0 1 1.004-1.106 1.04 1.04 0 0 1 1.094 1.008l.578 12.164a1.035 1.035 0 0 1-.996 1.094Zm26.843 8.691 23.977.195c4.953.04 8.59-3.539 8.633-8.5l.035-4.695c.043-4.96-3.54-8.601-8.488-8.64l-11.38-.094a1.04 1.04 0 0 1-1.05-1.055 1.046 1.046 0 0 1 1.066-1.047l18.895.156a1.04 1.04 0 0 0 1.055-1.039l.058-7.554a1.04 1.04 0 0 0-1.035-1.067l-23.98-.195c-4.95-.04-8.598 3.539-8.637 8.504l-.04 4.703c-.042 4.953 3.548 8.59 8.5 8.629l11.38.094a1.04 1.04 0 0 1 1.039 1.066 1.04 1.04 0 0 1-1.055 1.035l-18.895-.152a1.044 1.044 0 0 0-1.066 1.035l-.059 7.566a1.036 1.036 0 0 0 1.047 1.055Zm35.203.52 10.45.422a1.036 1.036 0 0 0 1.086-1l1.28-31.47c.024-.593-.46-1.073-1.042-1.1l-10.45-.423a1.04 1.04 0 0 0-1.097 1.012l-1.281 31.469c-.024.582.472 1.066 1.054 1.09Zm14.09.362 10.426.821a1.04 1.04 0 0 0 1.125-.96l1.465-18.634a1.05 1.05 0 0 1 1.137-.968c.582.047 1.007.55.96 1.133l-1.472 18.714c-.043.543.426 1 .965 1.043l10.465.825c.554.043 1.086-.336 1.129-.88l1.472-18.71a1.05 1.05 0 0 1 1.13-.973 1.05 1.05 0 0 1 .968 1.137l-1.469 18.633c-.043.582.422 1.082 1.004 1.125l10.422.82a1.03 1.03 0 0 0 1.125-.957l2.473-31.399c.046-.593-.418-1.093-1-1.136l-17.754-1.399c-.582-.047-1.082.418-1.13 1.012l-.456 5.813a1.04 1.04 0 0 1-1.133.96 1.036 1.036 0 0 1-.961-1.125l.46-5.855c.048-.594-.417-1.094-1-1.137l-17.753-1.398a1.04 1.04 0 0 0-1.137.969l-2.472 31.398c-.043.582.43 1.082 1.011 1.129Zm56.203-30.675 7.79.985a.98.98 0 0 0 .886-.391l3.762-5.621c.574-.86.11-1.848-.887-1.973l-7.789-.988c-.336-.043-.7.129-.898.394l-3.762 5.621c-.574.856-.11 1.844.898 1.973Zm-5.613 35.27 10.078 1.277c4.922.625 8.957-2.504 9.578-7.426l2.07-16.324c.622-4.922-2.503-8.957-7.425-9.578l-10.082-1.277c-4.91-.622-8.953 2.503-9.578 7.425l-2.067 16.325c-.625 4.921 2.512 8.957 7.426 9.578Zm6.258-8.942a1.04 1.04 0 0 1-.918-1.168l1.531-12.082a1.04 1.04 0 0 1 1.18-.918c.582.075.98.59.906 1.18l-1.531 12.082c-.074.582-.59.98-1.168.906Zm14.766 11.543 10.304 1.79a1.03 1.03 0 0 0 1.207-.852l3.2-18.414a1.053 1.053 0 1 1 2.074.363l-3.207 18.453c-.11.613.281 1.067.898 1.176l22.715 3.945a1.04 1.04 0 0 0 1.219-.847l5.394-31.032a1.04 1.04 0 0 0-.86-1.218l-10.343-1.797a1.035 1.035 0 0 0-1.21.859l-3.25 18.695a1.04 1.04 0 0 1-1.22.852 1.036 1.036 0 0 1-.851-1.211l3.254-18.734c.117-.668-.281-1.082-.906-1.188l-22.707-3.945a1.036 1.036 0 0 0-1.22.86l-5.394 31.027c-.097.578.328 1.117.903 1.218Zm0 0"/><path fill="#fff" d="m38.856 201.723 17.39-3.168c4.876-.89 7.782-5.09 6.895-9.965l-2.949-16.195c-.89-4.875-5.09-7.777-9.965-6.89l-17.39 3.167c-.578.106-.95.641-.844 1.22l5.64 30.984a1.04 1.04 0 0 0 1.223.847m10.664-11.761a1.04 1.04 0 0 1-1.222-.844l-2.184-11.98a1.044 1.044 0 0 1 .848-1.223 1.04 1.04 0 0 1 1.218.847l2.184 11.98a1.037 1.037 0 0 1-.844 1.22m17.71 6.662 10.347-1.48c.582-.083.976-.606.89-1.188l-.832-5.82a1.04 1.04 0 0 1 .891-1.188c.582-.086 1.11.348 1.195.93l.825 5.78c.086.58.648.966 1.23.884l10.352-1.485a1.04 1.04 0 0 0 .89-1.187l-3.398-23.734c-.703-4.907-4.79-7.97-9.696-7.266l-10.058 1.441c-4.906.703-7.969 4.79-7.266 9.696L66 195.74c.082.582.648.969 1.23.883Zm9.866-19.653a1.04 1.04 0 0 1-1.187-.89l-.477-3.324a1.045 1.045 0 0 1 .89-1.192 1.04 1.04 0 0 1 1.188.89l.477 3.329a1.04 1.04 0 0 1-.89 1.187Zm22.686 15.217 16.875-1.766a.97.97 0 0 0 .843-.804l2.641-13.914a4.8 4.8 0 0 0 .031-1.313l-1.77-16.875c-.058-.582-.609-.988-1.195-.93l-10.398 1.09a1.04 1.04 0 0 0-.934 1.153l2.098 20.046a1.04 1.04 0 0 1-.934 1.157 1.04 1.04 0 0 1-1.152-.938l-2.101-20.047c-.059-.582-.61-.992-1.196-.93l-10.398 1.09a1.034 1.034 0 0 0-.934 1.153l1.766 16.87c.058.544.129.833.305 1.278l5.46 13.067a.97.97 0 0 0 .993.613m24.745-2.431 10.425-.79a1.04 1.04 0 0 0 .965-1.128l-2.387-31.402c-.043-.586-.582-1.008-1.168-.965l-10.425.793a1.034 1.034 0 0 0-.965 1.125l2.387 31.406c.043.586.582 1.008 1.168.961m14.153-1.124 17.66-.84c4.95-.234 8.383-4.011 8.149-8.96l-.782-16.446c-.234-4.95-4.011-8.383-8.96-8.148l-17.66.835a1.036 1.036 0 0 0-.997 1.098l1.492 31.461a1.04 1.04 0 0 0 1.098 1m12.125-10.246a1.04 1.04 0 0 1-1.098-1l-.578-12.164a1.04 1.04 0 0 1 1-1.098 1.04 1.04 0 0 1 1.098 1l.578 12.164a1.04 1.04 0 0 1-1 1.098m26.842 8.69 23.98.195c4.954.043 8.595-3.539 8.634-8.496l.039-4.703c.039-4.953-3.543-8.594-8.496-8.637l-11.38-.09a1.044 1.044 0 0 1-1.042-1.058 1.044 1.044 0 0 1 1.058-1.043l18.899.156a1.046 1.046 0 0 0 1.058-1.043l.06-7.558a1.04 1.04 0 0 0-1.04-1.059l-23.977-.195c-4.957-.04-8.597 3.543-8.636 8.496l-.04 4.703c-.038 4.957 3.544 8.598 8.497 8.637l11.379.093a1.04 1.04 0 0 1 1.043 1.06 1.04 1.04 0 0 1-1.059 1.038l-18.895-.152a1.04 1.04 0 0 0-1.058 1.039l-.063 7.558a1.04 1.04 0 0 0 1.04 1.059Zm35.208.518 10.446.426a1.04 1.04 0 0 0 1.093-1.008l1.278-31.465c.023-.59-.461-1.07-1.047-1.094l-10.45-.425a1.04 1.04 0 0 0-1.09 1.004l-1.28 31.468c-.024.59.46 1.07 1.05 1.094m14.092.365 10.422.82a1.04 1.04 0 0 0 1.129-.965l1.469-18.629a1.04 1.04 0 0 1 1.129-.964c.586.046 1.007.543.96 1.129l-1.472 18.714c-.043.543.426 1.004.973 1.043l10.464.825c.543.043 1.079-.336 1.122-.88l1.472-18.71a1.04 1.04 0 0 1 1.13-.965c.589.047 1.01.543.964 1.129l-1.465 18.629c-.047.586.418 1.086 1.004 1.132l10.426.82a1.04 1.04 0 0 0 1.129-.964l2.472-31.398c.047-.586-.422-1.086-1.007-1.133l-17.75-1.395c-.586-.047-1.086.418-1.133 1.004l-.457 5.82a1.043 1.043 0 0 1-1.13.965 1.04 1.04 0 0 1-.964-1.129l.46-5.863c.048-.586-.417-1.086-1.003-1.133l-17.75-1.394a1.037 1.037 0 0 0-1.129.96l-2.473 31.4c-.046.585.422 1.085 1.008 1.132m56.195-30.67 7.793.984c.332.043.692-.125.895-.395l3.761-5.617c.575-.86.106-1.851-.894-1.976l-7.79-.989a1.02 1.02 0 0 0-.898.395l-3.757 5.621c-.575.86-.11 1.848.89 1.977m-5.61 35.265 10.083 1.278c4.918.625 8.953-2.504 9.574-7.422l2.07-16.332c.622-4.914-2.507-8.95-7.421-9.575l-10.082-1.277c-4.918-.621-8.954 2.508-9.575 7.422l-2.07 16.332c-.621 4.918 2.508 8.953 7.422 9.574Zm6.255-8.941a1.04 1.04 0 0 1-.906-1.176l1.527-12.078c.074-.586.59-.985 1.176-.91.582.074.98.59.906 1.172l-1.527 12.082c-.075.582-.59.984-1.176.91m14.771 11.542 10.301 1.79a1.037 1.037 0 0 0 1.215-.856l3.2-18.41a1.045 1.045 0 0 1 1.214-.856c.578.102.953.637.855 1.215l-3.207 18.453c-.109.621.282 1.07.903 1.18l22.715 3.945a1.04 1.04 0 0 0 1.214-.855l5.391-31.027a1.04 1.04 0 0 0-.855-1.215l-10.344-1.797a1.04 1.04 0 0 0-1.215.855l-3.246 18.7a1.04 1.04 0 0 1-1.215.855 1.04 1.04 0 0 1-.855-1.215l3.257-18.742c.114-.66-.285-1.07-.906-1.18l-22.71-3.945a1.04 1.04 0 0 0-1.216.855l-5.39 31.028c-.102.582.316 1.12.894 1.222m0 0"/><path fill="none" stroke="#231f20" stroke-width="1.93" d="m101.64 208.34-3.94.574-3.848-6.91-1.711 7.723-3.942.574-7.062-10.469 4.789-.7 3.87 6.743 1.99-7.598 2.984-.433 4.074 6.71 1.785-7.566 4.789-.699Zm20.282-2.414-13.625 1.554-1.293-11.316 13.004-1.48.316 2.796-8.254.942.203 1.773 6.977-.793.25 2.176-6.98.797.203 1.766 8.879-1.016Zm9.902-.903-8.137.715-.992-11.336 8.309-.73q2.211-.194 3.66-.117 1.447.077 2.262.441.815.362 1.148 1 .334.644.414 1.566.042.728-.293 1.239a2.35 2.35 0 0 1-.816.789q-.48.279-.86.312.372-.035.883.07.511.101 1.004.337.498.235.844.605.345.368.39.871.06.667-.046 1.235c-.07.375-.246.722-.532 1.03q-.427.47-1.3.845-.874.375-2.32.656-1.444.286-3.618.472Zm-.851-6.613q1.042-.093 1.605-.246.566-.153.77-.383a.7.7 0 0 0 .172-.55.7.7 0 0 0-.266-.524q-.24-.192-.824-.238-.582-.05-1.625.043l-3.106.273.164 1.895Zm.336 3.84q1.065-.095 1.726-.207.663-.112.95-.34.29-.223.253-.664-.04-.447-.367-.617c-.215-.117-.547-.176-.992-.168q-.667.005-1.738.098l-3.106.273.168 1.898Zm22.004 1.266-7.61.402-.601-11.371 7.605-.402q4.67-.252 6.781.949c1.137.644 1.817 1.566 2.032 2.77q.147.78.183 1.507.04.719-.02 1.516a4 4 0 0 1-.445 1.558q-.387.762-1.289 1.407c-.597.43-1.433.789-2.5 1.086q-1.6.443-4.136.578Zm-.602-2.79q3.637-.194 4.016-2.058a4.2 4.2 0 0 0 .07-1.035 4 4 0 0 0-.184-1.028 2 2 0 0 0-.605-.898q-.444-.392-1.305-.598t-2.297-.129l-2.386.125.304 5.747Zm24.777 1.914-13.707.368-.304-11.383 13.078-.352.078 2.817-8.305.223.047 1.785 7.02-.192.058 2.192-7.02.187.047 1.778 8.934-.239Zm11.446-.042-4.434.004-6.395-11.372 4.84-.003 3.774 8.128 3.742-8.14 4.84-.008Zm21.356.362-13.712-.331.277-11.383 13.082.316-.07 2.817-8.305-.203-.042 1.785 7.02.172-.052 2.187-7.023-.168-.043 1.778 8.933.215Zm15.062.712-13.278-.633.547-11.375 4.77.227-.41 8.562 8.507.406Zm8.769.863q-4.213-.304-6.07-2.183-1.647-1.663-1.453-4.317c.129-1.762.812-3.11 2.058-4.05q2.113-1.588 6.324-1.282c2.81.203 4.832.934 6.07 2.184 1.098 1.11 1.583 2.543 1.454 4.308q-.192 2.65-2.059 4.059-2.117 1.586-6.324 1.281Zm.223-3.047c1.148.082 2.015-.183 2.601-.804q.709-.751.79-1.836.075-1.084-.516-1.926-.734-1.056-2.457-1.18-1.73-.124-2.614.813-.707.744-.789 1.828-.076 1.084.516 1.93.739 1.05 2.469 1.175Zm14.269 4.016-4.754-.477 1.13-11.332 7.73.774c1.847.183 3.328.468 4.433.86q1.659.584 2.356 1.55.691.965.547 2.394-.14 1.424-1.012 2.23-.868.814-2.613 1.06-1.74.242-4.512-.032l-2.98-.297Zm.606-6.067 2.715.262c.761.078 1.359.106 1.804.09.442-.02.774-.07.992-.16q.328-.135.438-.352a1.42 1.42 0 0 0 .098-.98q-.065-.232-.36-.43-.297-.2-.941-.351-.65-.159-1.785-.27l-2.715-.273ZM274.7 208.5l-13.606-1.71 1.422-11.298 12.984 1.63-.352 2.796-8.246-1.035-.222 1.77 6.968.874-.273 2.176-6.969-.875-.218 1.762 8.863 1.113Zm17.136 2.57-4.465-.675q-.241-.475-.266-1.149a5 5 0 0 0-.18-1.05c-.097-.352-.308-.66-.632-.934q-.487-.404-1.543-.59l-3.07-.465-.492 3.25-4.723-.719 1.707-11.258 7.683 1.165q2.755.416 4.38 1.085 1.628.67 2.273 1.668.644 1.003.426 2.422-.178 1.184-.84 1.91-.659.727-1.89 1.024 1.048.632 1.284 1.328c.16.469.223.961.2 1.488q-.03.704.148 1.5Zm-9.734-7.64 2.699.402q1.133.169 1.797.168.668-.005 1.004-.133.339-.13.457-.332a1.3 1.3 0 0 0 .152-.43 1.2 1.2 0 0 0-.02-.46c-.035-.157-.144-.31-.336-.458q-.28-.221-.917-.425-.634-.2-1.766-.371l-2.7-.41Zm0 0"/><path fill="#fff" d="m101.63 208.344-3.937.578-3.828-6.907-1.719 7.72-3.953.562-7.047-10.453 4.782-.704 3.875 6.735 1.984-7.578 2.984-.438 4.078 6.688 1.782-7.547 4.781-.703Zm20.295-2.424-13.64 1.563-1.298-11.312 13.016-1.484.328 2.812-8.25.938.203 1.765 6.969-.797.25 2.172-6.969.797.203 1.766 8.875-1.016Zm9.905-.899-8.141.72-1-11.329 8.312-.734q2.204-.186 3.657-.11 1.451.082 2.265.438.811.345 1.14.984c.227.43.368.953.423 1.578q.045.719-.297 1.235a2.4 2.4 0 0 1-.813.796q-.487.27-.875.297.375-.029.891.078.514.094 1.016.329.498.234.843.609c.227.25.36.547.391.89q.059.656-.047 1.22-.11.55-.531 1.03-.422.47-1.313.844c-.586.25-1.359.47-2.328.657q-1.439.28-3.593.468m-.844-6.609q1.031-.094 1.594-.234.561-.155.765-.391a.73.73 0 0 0 .172-.563.66.66 0 0 0-.266-.515q-.253-.187-.828-.235-.578-.046-1.61.047l-3.108.266.171 1.89Zm.328 3.844a23 23 0 0 0 1.703-.203c.445-.082.766-.196.953-.344q.293-.216.266-.672-.036-.434-.375-.61c-.219-.124-.555-.18-1-.171q-.659 0-1.703.093l-3.11.266.157 1.906Zm21.998 1.261-7.61.407-.61-11.375 7.61-.407q4.671-.246 6.797.953 1.67.973 2.016 2.782.14.767.187 1.5.029.702-.031 1.5a4.2 4.2 0 0 1-.453 1.562q-.375.767-1.266 1.406c-.594.43-1.43.793-2.5 1.094q-1.61.439-4.14.578m-.61-2.797q3.64-.187 4.016-2.062.092-.514.078-1.016a4.6 4.6 0 0 0-.188-1.031 1.97 1.97 0 0 0-.609-.89q-.44-.388-1.297-.594-.861-.218-2.297-.141l-2.39.125.297 5.734Zm24.794 1.916-13.718.375-.313-11.391 13.094-.36.078 2.829-8.313.234.047 1.781 7.016-.187.062 2.187-7.015.188.047 1.781 8.937-.25Zm11.441-.04H184.5l-6.39-11.359h4.827l3.782 8.11 3.734-8.126h4.844Zm21.357.362-13.719-.328.281-11.39 13.094.312-.078 2.828-8.312-.203-.032 1.781 7.016.172-.063 2.188-7.015-.172-.047 1.781 8.937.219Zm15.06.707-13.281-.625.547-11.375 4.78.218-.405 8.563 8.5.406Zm8.775.876q-4.22-.315-6.078-2.188-1.64-1.652-1.453-4.312.198-2.653 2.062-4.047 2.11-1.592 6.328-1.281 4.2.314 6.063 2.187 1.638 1.642 1.437 4.297c-.125 1.774-.808 3.125-2.047 4.063q-2.11 1.592-6.312 1.281m.219-3.063q1.715.128 2.593-.78.702-.765.782-1.845.075-1.09-.516-1.921-.72-1.06-2.438-1.188-1.733-.124-2.625.813-.72.738-.796 1.828a2.87 2.87 0 0 0 .53 1.937q.735 1.033 2.47 1.156m14.264 4.018-4.75-.469 1.125-11.328 7.718.765q2.78.282 4.438.875 1.668.58 2.36 1.547.703.974.562 2.391-.142 1.425-1.016 2.234-.878.8-2.625 1.047c-1.156.168-2.664.156-4.515-.031l-2.97-.297Zm.61-6.063 2.718.266c.758.074 1.36.105 1.797.094q.656-.031.984-.172t.438-.344q.105-.216.14-.484a1.6 1.6 0 0 0-.047-.485q-.065-.233-.359-.437-.3-.201-.938-.344-.645-.153-1.78-.266l-2.72-.28Zm25.488 9.058-13.625-1.703 1.422-11.297 13 1.64-.36 2.798-8.25-1.047-.218 1.765 6.953.875-.266 2.172-6.953-.875-.234 1.766 8.875 1.11Zm17.125 2.573-4.469-.671q-.252-.472-.281-1.141a5.3 5.3 0 0 0-.172-1.047q-.128-.528-.625-.937c-.324-.282-.84-.477-1.547-.594l-3.062-.469-.485 3.25-4.734-.719 1.703-11.265 7.672 1.172c1.844.273 3.304.636 4.39 1.093 1.094.45 1.852 1.008 2.282 1.672.425.656.566 1.461.422 2.406q-.177 1.173-.844 1.907-.659.737-1.89 1.047 1.06.626 1.296 1.328.234.686.188 1.484-.034.686.156 1.484m-9.735-7.64 2.72.39q1.125.177 1.78.188.671.001 1-.125.329-.14.438-.344.122-.201.156-.437a1 1 0 0 0-.015-.453q-.047-.217-.329-.438-.282-.233-.921-.437-.626-.2-1.75-.375l-2.704-.407Zm0 0"/></svg>