<svg xmlns="http://www.w3.org/2000/svg" xmlns:xlink="http://www.w3.org/1999/xlink" width="652"
    height="552" fill="none">
    <defs>
        <path id="y" fill="#fff" d="M0 0h53.772v53.772H0z" />
    </defs>
    <circle cx="158" cy="11" r="9.5" stroke="#E94410" stroke-width="3" />
    <circle cx="368.5" cy="465.5" r="86.5" fill="#2249B3" />
    <ellipse cx="133" cy="154.5" fill="#0396FF" rx="133" ry="132.5" />
    <g filter="url(#a)">
        <path fill="#F9F9F9" d="M24.394 94.14H642V483.5H24.394V94.14Z" />
    </g>
    <ellipse cx="431" cy="283.5" fill="#13CE66" fill-opacity=".2" rx="78" ry="78.5" />
    <circle cx="259" cy="377" r="78" fill="#13CE66" fill-opacity=".2" />
    <path fill="#fff" d="M642 94.14v17.454H24.394V94.14H642Z" />
    <path fill="#1F2D3D"
        d="M63.592 104.33c0 .33-.114.59-.342.78-.226.19-.54.285-.945.285-.373 0-.703-.074-.99-.22v-.72c.237.11.436.187.598.232.164.045.314.068.449.068.162 0 .287-.033.372-.098.088-.065.132-.161.132-.289a.324.324 0 0 0-.057-.19.64.64 0 0 0-.17-.163 4.208 4.208 0 0 0-.451-.247 2.156 2.156 0 0 1-.48-.302 1.127 1.127 0 0 1-.256-.338.998.998 0 0 1-.096-.449c0-.324.105-.578.313-.763.21-.184.5-.277.87-.277.181 0 .354.023.518.068.165.044.338.108.518.189l-.239.603a3.417 3.417 0 0 0-.463-.168 1.44 1.44 0 0 0-.358-.047c-.14 0-.248.034-.323.102a.346.346 0 0 0-.112.268c0 .068.015.128.046.179.03.05.078.1.143.148.067.046.224.131.47.255.327.163.55.327.671.492a.982.982 0 0 1 .182.602Zm.633 1.015v-3.653h.74v3.653h-.74Zm3.097 0-.84-2.866h-.022c.03.583.046.972.046 1.166v1.7h-.662v-3.653h1.008l.826 2.793h.014l.877-2.793h1.008v3.653h-.69v-1.729c0-.082 0-.176.002-.283.003-.106.014-.39.033-.849h-.021l-.9 2.861h-.679Zm3.876-1.934h.244c.228 0 .398-.047.511-.14.113-.095.17-.233.17-.413 0-.181-.048-.315-.144-.402-.094-.086-.242-.13-.444-.13h-.337v1.085Zm1.672-.58c0 .393-.118.694-.353.902-.234.208-.568.312-1.001.312h-.318v1.3h-.74v-3.653h1.115c.424 0 .746.095.965.287.222.19.332.474.332.852Zm.66 2.514v-3.653h.74v3.013h1.416v.64h-2.157Zm4.776 0h-2.011v-3.653h2.01v.634h-1.27v.802h1.182v.635h-1.182v.942h1.27v.64Zm4.81 0h-.841l-.915-1.54-.313.235v1.305h-.74v-3.653h.74v1.671l.292-.43.946-1.241h.821l-1.218 1.616 1.228 2.037Zm1.526-2.149.728-1.504h.798l-1.159 2.231v1.422h-.735v-1.397l-1.158-2.256h.802l.724 1.504Zm3.448-.912a.742.742 0 0 0-.647.33c-.153.218-.23.523-.23.914 0 .815.293 1.222.877 1.222.246 0 .542-.064.891-.192v.649a2.377 2.377 0 0 1-.96.188c-.508 0-.896-.161-1.165-.483-.27-.323-.404-.786-.404-1.389 0-.38.066-.712.198-.997.132-.286.322-.505.569-.657.248-.153.539-.23.871-.23.34 0 .68.086 1.022.257l-.238.63a3.783 3.783 0 0 0-.394-.17 1.135 1.135 0 0 0-.39-.072Zm5.044 3.061-.253-.87h-1.273l-.253.87h-.798l1.233-3.668h.905l1.237 3.668h-.798Zm-.43-1.52-.396-1.336a4.446 4.446 0 0 1-.062-.245 51.7 51.7 0 0 1-.451 1.581h.91Zm4.767 1.52h-.94l-1.52-2.764h-.021c.03.488.045.836.045 1.045v1.719h-.661v-3.653h.934l1.516 2.736h.017a23.342 23.342 0 0 1-.036-1.007v-1.729h.666v3.653Zm3.158 0H98.03v-.503l1.674-2.511h-1.628v-.639h2.507v.499l-1.672 2.514h1.718v.64Zm2.567-1.934h.244c.227 0 .398-.047.511-.14.113-.095.169-.233.169-.413 0-.181-.048-.315-.143-.402-.094-.086-.242-.13-.444-.13h-.337v1.085Zm1.672-.58c0 .393-.118.694-.354.902-.234.208-.567.312-1 .312h-.318v1.3h-.74v-3.653h1.115c.423 0 .745.095.965.287.221.19.332.474.332.852Zm2.006 2.514h-.741v-3.009h-.948v-.644h2.637v.644h-.948v3.009Zm2.572-2.149.728-1.504h.798l-1.158 2.231v1.422h-.736v-1.397l-1.158-2.256h.802l.724 1.504Zm1.805 1.791c0-.14.036-.245.108-.317.072-.072.176-.107.313-.107.132 0 .234.036.305.109.074.074.11.179.11.315a.432.432 0 0 1-.11.313.406.406 0 0 1-.305.112.423.423 0 0 1-.311-.11.433.433 0 0 1-.11-.315Zm2.826.358v-3.653h.74v3.013h1.416v.64h-2.156Zm4.112 0h-.74v-3.009h-.948v-.644h2.636v.644h-.948v3.009Zm4.383-1.862c0 .601-.164 1.062-.492 1.382-.327.32-.799.48-1.417.48h-.988v-3.653h1.096c.57 0 1.013.157 1.328.472.315.315.473.754.473 1.319Zm-.769.02c0-.785-.332-1.177-.994-1.177h-.394v2.379h.318c.713 0 1.07-.401 1.07-1.202Zm17.325-3.322h.697v6.713h-.697v-6.713Zm27.187 5.164h-1.254l-2.026-3.685h-.028c.04.651.06 1.115.06 1.392v2.293h-.882v-4.871h1.245l2.022 3.648h.023a30.762 30.762 0 0 1-.048-1.343v-2.305h.888v4.871Zm1.873-1.869c0 .368.057.647.172.836.116.189.305.283.566.283.259 0 .445-.093.558-.28.114-.189.172-.468.172-.839 0-.369-.058-.646-.172-.83-.115-.184-.303-.276-.564-.276-.259 0-.446.092-.56.276-.115.182-.172.459-.172.83Zm2.461 0c0 .606-.153 1.08-.458 1.422-.306.342-.732.513-1.277.513a1.74 1.74 0 0 1-.905-.233 1.556 1.556 0 0 1-.602-.676 2.359 2.359 0 0 1-.21-1.026c0-.609.152-1.082.456-1.42.303-.337.73-.506 1.28-.506.342 0 .643.078.904.233.261.156.462.379.602.67.14.291.21.632.21 1.023Zm2.302 1.126c.17 0 .374-.039.612-.117v.756c-.242.114-.539.17-.892.17-.388 0-.672-.102-.85-.306-.176-.207-.264-.516-.264-.926v-1.796h-.465v-.43l.535-.34.28-.786h.621v.793h.997v.763h-.997v1.796c0 .144.038.251.114.319a.453.453 0 0 0 .309.104Zm2.809-2.329a.603.603 0 0 0-.484.206c-.117.136-.184.329-.201.58h1.363c-.004-.251-.067-.444-.188-.58a.62.62 0 0 0-.49-.206Zm.137 3.138c-.573 0-1.021-.165-1.344-.496-.323-.331-.484-.8-.484-1.406 0-.624.149-1.106.446-1.446.299-.342.712-.513 1.239-.513.503 0 .894.15 1.175.45.28.3.42.714.42 1.242v.493h-2.296c.011.289.092.515.245.677.153.162.367.243.643.243.215 0 .418-.023.609-.07.191-.047.39-.121.598-.223v.786c-.17.089-.351.154-.544.197a3.237 3.237 0 0 1-.707.066Zm4.725-1.172c0 .382-.127.672-.382.872-.252.2-.631.3-1.137.3-.259 0-.479-.019-.662-.056a2.416 2.416 0 0 1-.513-.16v-.84c.181.089.384.163.609.223.227.06.426.09.598.09.353 0 .529-.106.529-.32a.27.27 0 0 0-.07-.193.997.997 0 0 0-.242-.17 5.985 5.985 0 0 0-.459-.223 2.91 2.91 0 0 1-.605-.333.953.953 0 0 1-.28-.35 1.243 1.243 0 0 1-.086-.49c0-.331.122-.586.366-.766.246-.182.595-.273 1.045-.273.429 0 .846.098 1.251.293l-.293.733a5.456 5.456 0 0 0-.5-.197 1.507 1.507 0 0 0-.474-.076c-.287 0-.43.081-.43.243 0 .091.046.17.137.237.093.066.296.165.608.296.278.118.482.228.611.33.13.102.225.22.287.353.062.133.092.292.092.477Zm16.944-4.058h.697v6.713h-.697v-6.713Z" />
    <path fill="#8492A2"
        d="M153.289 102.198v-.678h-2.695v.678h2.695Zm0 1.008v-.677h-2.695v.677h2.695Zm-1.009 1.009v-.678h-1.686v.678h1.686Zm-2.348-2.017v-.678h-.678v.678h.678Zm0 1.008v-.677h-.678v.677h.678Zm0 1.009v-.678h-.678v.678h.678Zm4.035-4.034a.64.64 0 0 1 .468.193.637.637 0 0 1 .193.468v4.035a.665.665 0 0 1-.193.476.629.629 0 0 1-.468.201h-4.713l-1.339 1.34v-6.052c0-.183.065-.339.194-.468a.637.637 0 0 1 .468-.193h5.39Z" />
    <path fill="#C7C7C7"
        d="m190.245 101.524.634.641-2.685 2.716-2.686-2.716.634-.641 2.052 2.086 2.051-2.086Zm-58.325 0 .555.641-2.35 2.716-2.35-2.716.555-.641 1.795 2.086 1.795-2.086Z" />
    <path fill="#606060"
        d="M563.916 103.299h.244c.227 0 .398-.045.511-.134.113-.091.169-.222.169-.394 0-.174-.047-.302-.143-.385-.094-.083-.242-.124-.444-.124h-.337v1.037Zm1.672-.554c0 .375-.118.663-.353.862-.235.199-.568.299-1.001.299h-.318v1.242h-.741v-3.493h1.116c.424 0 .745.092.965.275.221.182.332.453.332.815Zm1.183 1.063c0 .264.043.464.129.599.087.136.229.203.425.203.194 0 .333-.067.418-.2.086-.136.129-.336.129-.602 0-.265-.043-.463-.129-.595-.086-.132-.227-.198-.423-.198-.194 0-.334.066-.42.198-.086.13-.129.329-.129.595Zm1.846 0c0 .434-.114.774-.344 1.02-.229.245-.548.368-.958.368-.256 0-.482-.056-.678-.168a1.123 1.123 0 0 1-.452-.485 1.624 1.624 0 0 1-.157-.735c0-.437.114-.776.341-1.018.228-.242.548-.363.961-.363.256 0 .482.056.678.167.196.112.346.272.452.48.105.209.157.453.157.734Zm2.798 1.34-.206-.934-.277-1.18h-.017l-.487 2.114h-.784l-.759-2.671h.726l.308 1.183c.05.211.1.504.151.876h.014c.006-.121.034-.313.084-.575l.038-.204.33-1.28h.802l.313 1.28.029.156a6.523 6.523 0 0 1 .093.623h.014a9.31 9.31 0 0 1 .077-.47c.036-.201.063-.336.079-.406l.32-1.183h.714l-.769 2.671h-.793Zm3.1-2.203a.464.464 0 0 0-.363.148c-.087.097-.137.236-.15.416h1.022c-.003-.18-.05-.319-.141-.416a.476.476 0 0 0-.368-.148Zm.103 2.251c-.43 0-.766-.119-1.008-.356-.242-.238-.363-.574-.363-1.008 0-.448.111-.794.334-1.037.225-.246.535-.368.93-.368.377 0 .671.107.881.322.21.215.316.512.316.891v.354h-1.723c.008.207.069.369.184.485.115.116.276.174.483.174a1.973 1.973 0 0 0 .905-.21v.564a1.655 1.655 0 0 1-.408.141 2.507 2.507 0 0 1-.531.048Zm3.173-2.769c.098 0 .18.007.246.021l-.055.684a.834.834 0 0 0-.215-.024c-.233 0-.414.059-.545.179-.129.119-.193.287-.193.502v1.359h-.729v-2.671h.552l.107.449h.036a.994.994 0 0 1 .335-.361.828.828 0 0 1 .461-.138Zm1.837.518a.46.46 0 0 0-.363.148c-.088.097-.138.236-.151.416h1.023c-.004-.18-.051-.319-.141-.416a.479.479 0 0 0-.368-.148Zm.102 2.251c-.43 0-.766-.119-1.008-.356-.242-.238-.363-.574-.363-1.008 0-.448.112-.794.335-1.037.224-.246.534-.368.929-.368.377 0 .671.107.881.322.211.215.316.512.316.891v.354h-1.723c.008.207.07.369.184.485.115.116.276.174.483.174a1.967 1.967 0 0 0 .905-.21v.564a1.64 1.64 0 0 1-.408.141 2.507 2.507 0 0 1-.531.048Zm2.528 0a.87.87 0 0 1-.741-.366c-.178-.244-.267-.581-.267-1.013 0-.438.091-.779.272-1.022a.889.889 0 0 1 .755-.368c.336 0 .592.13.769.392h.024a3.041 3.041 0 0 1-.055-.533v-.855h.731v3.717h-.559l-.141-.347h-.031c-.165.263-.418.395-.757.395Zm.256-.581c.186 0 .322-.054.408-.162.088-.109.135-.293.143-.552v-.079c0-.287-.044-.492-.133-.616-.088-.125-.231-.187-.43-.187a.431.431 0 0 0-.38.208c-.089.137-.134.337-.134.6 0 .263.045.46.136.592a.446.446 0 0 0 .39.196Zm4.751-2.188c.315 0 .562.123.741.37.178.245.267.582.267 1.011 0 .441-.092.782-.277 1.024a.888.888 0 0 1-.75.364c-.314 0-.56-.114-.738-.342h-.05l-.122.294h-.557v-3.717h.729v.864c0 .11-.01.286-.029.528h.029c.17-.264.423-.396.757-.396Zm-.234.583c-.18 0-.311.055-.394.167-.083.11-.126.292-.129.547v.079c0 .287.042.492.126.616.086.124.222.187.407.187a.403.403 0 0 0 .355-.206c.09-.138.134-.339.134-.602 0-.263-.044-.459-.134-.59a.418.418 0 0 0-.365-.198Zm1.462-.533h.798l.504 1.503c.043.13.072.285.088.463h.015c.017-.164.051-.318.102-.463l.495-1.503h.781l-1.13 3.012c-.103.279-.252.488-.444.626a1.111 1.111 0 0 1-.672.208c-.125 0-.249-.013-.37-.04v-.579c.088.021.183.031.287.031a.509.509 0 0 0 .337-.119.763.763 0 0 0 .227-.356l.043-.131-1.061-2.652Z"
        opacity=".273" />
    <path fill="url(#b)" d="M594.945 100.469h41.586v6.523h-41.586v-6.523Z" opacity=".272" />
    <path fill="#fff" d="M55.274 94.811h-30.88v388.69h30.88V94.811Z" />
    <mask id="c" width="16" height="16" x="32" y="98" mask-type="alpha" maskUnits="userSpaceOnUse">
        <path fill="#fff" fill-rule="evenodd" d="M32.309 98.625H47.8v14.677H32.31V98.625Z"
            clip-rule="evenodd" />
    </mask>
    <g mask="url(#c)">
        <path fill="url(#d)" d="M34.755 100.664h45.663v11.008H34.755v-11.008Z" opacity=".503" />
    </g>
    <path fill="#979797" fill-rule="evenodd"
        d="M40.578 438.39a.178.178 0 0 1-.123.05h-1.652a.177.177 0 0 1-.123-.05.202.202 0 0 1-.064-.128l-.157-1.078a2.475 2.475 0 0 1-.688-.405l-1.023.405c-.104.046-.186.02-.245-.079l-.826-1.424a.233.233 0 0 1-.03-.148.193.193 0 0 1 .07-.129l.864-.672a3.1 3.1 0 0 1-.02-.405c0-.178.007-.313.02-.406l-.865-.672a.193.193 0 0 1-.069-.128.236.236 0 0 1 .03-.149l.826-1.423c.059-.099.14-.126.245-.08l1.023.406a3.2 3.2 0 0 1 .688-.406l.157-1.077a.202.202 0 0 1 .064-.129.176.176 0 0 1 .123-.049h1.652c.046 0 .087.016.123.049a.25.25 0 0 1 .073.129l.148 1.077c.255.099.488.234.698.406l1.012-.406a.216.216 0 0 1 .143-.009.176.176 0 0 1 .103.089l.826 1.423a.236.236 0 0 1 .03.149.193.193 0 0 1-.07.128l-.855.672c.013.093.02.228.02.406 0 .178-.007.313-.02.405l.855.672c.04.033.063.076.07.129a.233.233 0 0 1-.03.148l-.826 1.424a.18.18 0 0 1-.103.089.217.217 0 0 1-.143-.01l-1.012-.405a3.21 3.21 0 0 1-.698.405l-.148 1.078a.253.253 0 0 1-.073.128Zm-1.662-2.818a1.384 1.384 0 0 0 1.43 0c.223-.131.4-.308.531-.529a1.406 1.406 0 0 0 0-1.438 1.479 1.479 0 0 0-.53-.534 1.384 1.384 0 0 0-1.43 0 1.49 1.49 0 0 0-.527.534 1.406 1.406 0 0 0 0 1.438c.131.221.307.398.526.529Z"
        clip-rule="evenodd" />
    <mask id="e" width="9" height="9" x="35" y="430" mask-type="alpha" maskUnits="userSpaceOnUse">
        <path fill="#fff" fill-rule="evenodd"
            d="M40.578 438.39a.178.178 0 0 1-.123.05h-1.652a.177.177 0 0 1-.123-.05.202.202 0 0 1-.064-.128l-.157-1.078a2.475 2.475 0 0 1-.688-.405l-1.023.405c-.104.046-.186.02-.245-.079l-.826-1.424a.233.233 0 0 1-.03-.148.193.193 0 0 1 .07-.129l.864-.672a3.1 3.1 0 0 1-.02-.405c0-.178.007-.313.02-.406l-.865-.672a.193.193 0 0 1-.069-.128.236.236 0 0 1 .03-.149l.826-1.423c.059-.099.14-.126.245-.08l1.023.406a3.2 3.2 0 0 1 .688-.406l.157-1.077a.202.202 0 0 1 .064-.129.176.176 0 0 1 .123-.049h1.652c.046 0 .087.016.123.049a.25.25 0 0 1 .073.129l.148 1.077c.255.099.488.234.698.406l1.012-.406a.216.216 0 0 1 .143-.009.176.176 0 0 1 .103.089l.826 1.423a.236.236 0 0 1 .03.149.193.193 0 0 1-.07.128l-.855.672c.013.093.02.228.02.406 0 .178-.007.313-.02.405l.855.672c.04.033.063.076.07.129a.233.233 0 0 1-.03.148l-.826 1.424a.18.18 0 0 1-.103.089.217.217 0 0 1-.143-.01l-1.012-.405a3.21 3.21 0 0 1-.698.405l-.148 1.078a.253.253 0 0 1-.073.128Zm-1.662-2.818a1.384 1.384 0 0 0 1.43 0c.223-.131.4-.308.531-.529a1.406 1.406 0 0 0 0-1.438 1.479 1.479 0 0 0-.53-.534 1.384 1.384 0 0 0-1.43 0 1.49 1.49 0 0 0-.527.534 1.406 1.406 0 0 0 0 1.438c.131.221.307.398.526.529Z"
            clip-rule="evenodd" />
    </mask>
    <g mask="url(#e)">
        <path fill="#979797"
            d="M34.713 430.208c0-.455.367-.824.82-.824h8.192c.452 0 .82.369.82.824v8.238a.821.821 0 0 1-.82.824h-8.192a.821.821 0 0 1-.82-.824v-8.238Z" />
    </g>
    <path fill="#979797"
        d="M39.22 462.903h.819v-.794h-.82v.794Zm.409-6.347c-2.261 0-4.096 1.777-4.096 3.967 0 2.189 1.835 3.966 4.096 3.966 2.26 0 4.096-1.777 4.096-3.966 0-2.19-1.835-3.967-4.096-3.967Zm0 7.14c-1.806 0-3.277-1.424-3.277-3.173 0-1.75 1.47-3.174 3.277-3.174 1.806 0 3.277 1.424 3.277 3.174 0 1.749-1.47 3.173-3.277 3.173Zm0-5.554c-.905 0-1.639.71-1.639 1.587h.82c0-.436.368-.793.819-.793.45 0 .82.357.82.793 0 .794-1.23.694-1.23 1.984h.82c0-.893 1.228-.992 1.228-1.984 0-.877-.733-1.587-1.638-1.587Z" />
    <path fill="#979797" fill-rule="evenodd"
        d="M37.153 157.464a.601.601 0 0 1-.438.178.586.586 0 0 1-.432-.178.594.594 0 0 1-.177-.435.61.61 0 0 1 .177-.44.579.579 0 0 1 .432-.183c.17 0 .317.061.438.183a.602.602 0 0 1 .182.44c0 .171-.06.316-.182.435Zm6.532-.84v.81h-5.74v-.81h5.74Zm-6.97 3.49c.17 0 .317-.06.438-.178a.586.586 0 0 0 .182-.435.6.6 0 0 0-.182-.44.594.594 0 0 0-.438-.183.579.579 0 0 0-.432.183.61.61 0 0 0-.177.44c0 .171.059.316.177.435a.59.59 0 0 0 .432.178Zm6.97-1.019v.811h-5.74v-.811h5.74Zm-6.97 3.49a.6.6 0 0 0 .433-.183.58.58 0 0 0 .187-.43.609.609 0 0 0-.182-.435.587.587 0 0 0-.438-.187.572.572 0 0 0-.432.187.618.618 0 0 0-.177.435c0 .165.06.309.182.43a.584.584 0 0 0 .428.183Zm6.97-1.018v.811h-5.74v-.811h5.74Z"
        clip-rule="evenodd" />
    <mask id="f" width="8" height="7" x="36" y="156" mask-type="alpha" maskUnits="userSpaceOnUse">
        <path fill="#fff" fill-rule="evenodd"
            d="M37.153 157.464a.601.601 0 0 1-.438.178.586.586 0 0 1-.432-.178.594.594 0 0 1-.177-.435.61.61 0 0 1 .177-.44.579.579 0 0 1 .432-.183c.17 0 .317.061.438.183a.602.602 0 0 1 .182.44c0 .171-.06.316-.182.435Zm6.532-.84v.81h-5.74v-.81h5.74Zm-6.97 3.49c.17 0 .317-.06.438-.178a.586.586 0 0 0 .182-.435.6.6 0 0 0-.182-.44.594.594 0 0 0-.438-.183.579.579 0 0 0-.432.183.61.61 0 0 0-.177.44c0 .171.059.316.177.435a.59.59 0 0 0 .432.178Zm6.97-1.019v.811h-5.74v-.811h5.74Zm-6.97 3.49a.6.6 0 0 0 .433-.183.58.58 0 0 0 .187-.43.609.609 0 0 0-.182-.435.587.587 0 0 0-.438-.187.572.572 0 0 0-.432.187.618.618 0 0 0-.177.435c0 .165.06.309.182.43a.584.584 0 0 0 .428.183Zm6.97-1.018v.811h-5.74v-.811h5.74Z"
            clip-rule="evenodd" />
    </mask>
    <g mask="url(#f)">
        <path fill="#979797"
            d="M35.123 155.381a.82.82 0 0 1 .82-.823h8.192a.82.82 0 0 1 .819.823v8.239a.822.822 0 0 1-.82.824h-8.192a.822.822 0 0 1-.819-.824v-8.239Z" />
    </g>
    <path fill="#979797" fill-rule="evenodd"
        d="M39.636 279.986v4.113h-3.284v-4.113h3.284Zm4.09 0v2.472h-3.284v-2.472h3.283Zm0 7.415v-4.113h-3.284v4.113h3.283Zm-4.09-2.471v2.471h-3.284v-2.471h3.284Z"
        clip-rule="evenodd" />
    <mask id="g" width="8" height="9" x="36" y="279" mask-type="alpha" maskUnits="userSpaceOnUse">
        <path fill="#fff" fill-rule="evenodd"
            d="M39.636 279.986v4.113h-3.284v-4.113h3.284Zm4.09 0v2.472h-3.284v-2.472h3.283Zm0 7.415v-4.113h-3.284v4.113h3.283Zm-4.09-2.471v2.471h-3.284v-2.471h3.284Z"
            clip-rule="evenodd" />
    </mask>
    <g mask="url(#g)">
        <path fill="#979797"
            d="M35.123 279.574c0-.455.367-.824.82-.824h8.192c.452 0 .819.369.819.824v8.239a.822.822 0 0 1-.82.824h-8.192a.822.822 0 0 1-.819-.824v-8.239Z" />
    </g>
    <path fill="#DA4C26"
        d="m43.48 192.888-1.86-1.621h1.162l-1.683-1.576h1.078l-2.139-2.576-2.138 2.576h1.078l-1.683 1.576h1.163l-1.86 1.621h2.743v1.774c0 .153.12.27.279.27h.837a.27.27 0 0 0 .279-.27v-1.774h2.743Z" />
    <mask id="h" width="8" height="8" x="36" y="187" mask-type="alpha" maskUnits="userSpaceOnUse">
        <path fill="#fff"
            d="m43.48 192.888-1.86-1.621h1.162l-1.683-1.576h1.078l-2.139-2.576-2.138 2.576h1.078l-1.683 1.576h1.163l-1.86 1.621h2.743v1.774c0 .153.12.27.279.27h.837a.27.27 0 0 0 .279-.27v-1.774h2.743Z" />
    </mask>
    <g mask="url(#h)">
        <path fill="#DA4C26"
            d="M35.123 186.903c0-.438.367-.794.82-.794h8.192c.452 0 .819.356.819.794v7.933a.807.807 0 0 1-.82.794h-8.192a.807.807 0 0 1-.819-.794v-7.933Z" />
    </g>
    <g clip-path="url(#i)">
        <path fill="#979797"
            d="M37.58 217.813a.82.82 0 0 0-.814.824l-.004 6.591a.82.82 0 0 0 .815.824h4.92c.45 0 .819-.37.819-.824v-4.943l-2.458-2.472H37.58Zm2.868 2.884v-2.266l2.253 2.266h-2.253Z" />
    </g>
    <path fill="#979797"
        d="M42.906 249.106h-1.712a1.234 1.234 0 0 0-1.155-.824c-.533 0-.983.346-1.156.824h-1.712a.824.824 0 0 0-.819.824v5.767c0 .453.369.824.82.824h5.734c.45 0 .82-.371.82-.824v-5.767a.824.824 0 0 0-.82-.824Zm-2.867 0a.412.412 0 0 1 0 .824.412.412 0 0 1 0-.824Zm.819 5.767H37.99v-.824h2.867v.824Zm1.229-1.647H37.99v-.824h4.097v.824Zm0-1.648H37.99v-.824h4.097v.824Z" />
    <path stroke="#D5D5D5" stroke-width="3"
        d="m339.452 181.409-123.539 90.527m134.429-81.678 70.448 75.212m-50.369-80.998 171.184 80.998m-341.961 37.095-48.733 62.28m67.725-62.28 45.604 76.914" />
    <g filter="url(#j)">
        <circle cx="351.704" cy="169.838" r="30.629" fill="#fff" />
    </g>
    <g filter="url(#k)">
        <circle cx="210.128" cy="282.827" r="30.629" fill="#fff" />
    </g>
    <g filter="url(#l)">
        <circle cx="150.912" cy="376.756" r="30.629" fill="#fff" />
    </g>
    <g filter="url(#m)">
        <circle cx="259.816" cy="376.756" r="30.629" fill="#fff" />
    </g>
    <g filter="url(#n)">
        <circle cx="431.34" cy="282.827" r="30.629" fill="#fff" />
    </g>
    <g filter="url(#o)">
        <circle cx="546.371" cy="282.827" r="30.629" fill="#fff" />
    </g>
    <g clip-path="url(#p)">
        <path fill="#CCC"
            d="M177.345 377.098c0 14.787-11.986 26.774-26.773 26.774-14.788 0-26.774-11.987-26.774-26.774s11.986-26.774 26.774-26.774c14.787 0 26.773 11.987 26.773 26.774Zm-16.131 5.377c-.56-.448-1.232-.672-1.905-.784-1.792-.448-3.808-.56-5.153-2.465 0 0-.672-.784.897-2.8 1.568-2.017 1.792-5.153 1.344-7.506-.448-2.464-2.689-4.033-5.041-4.033-2.353 0-4.705 1.569-5.041 4.033-.448 2.465-.224 5.601 1.344 7.506 1.568 2.016.896 2.8.896 2.8-1.344 1.793-3.361 2.017-5.153 2.465-.672.224-1.344.448-1.904.784-2.129 1.456-1.569 4.705-1.569 4.705h23.077c-.224 0 .224-3.249-1.792-4.705Z" />
    </g>
    <g clip-path="url(#q)">
        <path fill="#13CE66"
            d="M458.455 283.168c0 14.787-11.987 26.774-26.774 26.774s-26.774-11.987-26.774-26.774 11.987-26.773 26.774-26.773 26.774 11.986 26.774 26.773Zm-16.132 5.377c-.56-.448-1.232-.672-1.904-.784-1.793-.448-3.809-.56-5.153-2.464 0 0-.672-.784.896-2.801 1.568-2.016 1.792-5.153 1.344-7.505-.448-2.465-2.688-4.033-5.041-4.033-2.352 0-4.705 1.568-5.041 4.033-.448 2.464-.224 5.601 1.344 7.505 1.569 2.017.897 2.801.897 2.801-1.345 1.792-3.361 2.016-5.154 2.464-.672.224-1.344.448-1.904.784-2.128 1.457-1.568 4.705-1.568 4.705h23.077c-.224 0 .224-3.248-1.793-4.705Z" />
    </g>
    <g clip-path="url(#r)">
        <path fill="#13CE66"
            d="M286.25 377.098c0 14.787-11.987 26.774-26.774 26.774s-26.774-11.987-26.774-26.774 11.987-26.774 26.774-26.774 26.774 11.987 26.774 26.774Zm-16.132 5.377c-.56-.448-1.232-.672-1.904-.784-1.793-.448-3.809-.56-5.153-2.465 0 0-.673-.784.896-2.8 1.568-2.017 1.792-5.153 1.344-7.506-.448-2.464-2.688-4.033-5.041-4.033-2.352 0-4.705 1.569-5.041 4.033-.448 2.465-.224 5.601 1.344 7.506 1.569 2.016.896 2.8.896 2.8-1.344 1.793-3.36 2.017-5.153 2.465-.672.224-1.344.448-1.904.784-2.129 1.456-1.568 4.705-1.568 4.705h23.077c-.225 0 .224-3.249-1.793-4.705Z" />
    </g>
    <g clip-path="url(#s)">
        <path fill="#CCC"
            d="M573.485 283.168c0 14.787-11.986 26.774-26.773 26.774-14.787 0-26.774-11.987-26.774-26.774s11.987-26.773 26.774-26.773 26.773 11.986 26.773 26.773Zm-16.131 5.377c-.56-.448-1.232-.672-1.904-.784-1.793-.448-3.809-.56-5.154-2.464 0 0-.672-.784.897-2.801 1.568-2.016 1.792-5.153 1.344-7.505-.448-2.465-2.689-4.033-5.041-4.033-2.353 0-4.705 1.568-5.041 4.033-.448 2.464-.224 5.601 1.344 7.505 1.568 2.017.896 2.801.896 2.801-1.344 1.792-3.36 2.016-5.153 2.464-.672.224-1.344.448-1.904.784-2.129 1.457-1.569 4.705-1.569 4.705h23.077c-.224 0 .224-3.248-1.792-4.705Z" />
    </g>
    <g clip-path="url(#t)">
        <path fill="#CCC"
            d="M200.379 265.02v34.28h7.729v-7.394h4.145v7.394h7.618v-34.28h-19.492Zm17.364 23.861h-15.348v-3.584h15.348v3.584Zm0-5.601h-15.236v-3.584h15.348v3.584h-.112Zm0-5.489h-15.236v-3.585h15.348v3.585h-.112Zm0-5.601h-15.236v-3.585h15.348v3.585h-.112Zm18.82 10.978c0 14.787-11.987 26.774-26.774 26.774s-26.774-11.987-26.774-26.774 11.987-26.773 26.774-26.773 26.774 11.986 26.774 26.773Z" />
    </g>
    <g clip-path="url(#u)">
        <path fill="#CCC"
            d="M341.954 152.033v34.279h7.73v-7.393h4.145v7.393h7.617v-34.279h-19.492Zm17.364 23.861H343.97v-3.585h15.348v3.585Zm0-5.601h-15.236v-3.585h15.348v3.585h-.112Zm0-5.489h-15.236v-3.585h15.348v3.585h-.112Zm0-5.601h-15.236v-3.585h15.348v3.585h-.112Zm18.82 10.978c0 14.787-11.987 26.774-26.774 26.774s-26.774-11.987-26.774-26.774 11.987-26.774 26.774-26.774 26.774 11.987 26.774 26.774Z" />
    </g>
    <g filter="url(#v)">
        <path fill="#0052B4"
            d="M275 428c0 3.713-1.475 7.274-4.101 9.899a13.996 13.996 0 0 1-19.798 0A13.996 13.996 0 0 1 247 428l14-14c3.713 0 7.274 1.475 9.899 4.101A13.996 13.996 0 0 1 275 428Z" />
        <path fill="#EEE" d="M260.961 428H261v-.038l-.039.038Z" />
        <path fill="#EEE"
            d="M261 421.306V414a13.996 13.996 0 0 0-9.899 4.101A13.996 13.996 0 0 0 247 428h7.306v-4.112l4.113 4.112h2.543l.038-.038v-2.543l-4.112-4.113H261Z" />
        <path fill="#D80027"
            d="M254.082 415.827a14.065 14.065 0 0 0-5.255 5.256v6.918h3.653v-8.521H261v-3.653h-6.918Z" />
        <path fill="#D80027" d="m261 426.277-4.976-4.976h-1.717L261 428v-1.723Z" />
        <path fill="#EEE"
            d="m255.444 430.434.765 1.608 1.74-.4-.777 1.603 1.395 1.104-1.74.394.006 1.778-1.389-1.111-1.389 1.111v-1.778l-1.728-.399 1.394-1.105-.776-1.602 1.733.399.766-1.602Zm12.518 3.046.383.804.869-.203-.388.799.694.558-.869.191v.892l-.689-.558-.695.558v-.892l-.869-.191.7-.558-.389-.799.87.203.383-.804Zm-3.577-8.526.383.804.875-.197-.394.799.7.552-.875.197.006.891-.695-.558-.694.558v-.891l-.864-.197.694-.547-.383-.804.864.197.383-.804Zm3.577-4.867.383.804.869-.203-.394.804.695.547-.87.203v.891l-.689-.558-.694.558v-.891l-.87-.197.7-.553-.388-.804.87.203.388-.804Zm3.117 3.653.383.804.875-.202-.388.804.694.546-.869.203v.886l-.69-.553-.694.553v-.886l-.87-.197.7-.552-.388-.804.864.202.383-.804Zm-2.226 4.26.306.93h.974l-.793.574.301.93-.793-.574-.788.574.301-.93-.793-.574h.984l.301-.93Z" />
    </g>
    <g clip-path="url(#w)" filter="url(#x)">
        <path fill="#EEE"
            d="M431 350c7.732 0 14-6.268 14-14s-6.268-14-14-14-14 6.268-14 14 6.268 14 14 14Z" />
        <path fill="#D80027"
            d="M430.393 336H445c0-1.263-.164-2.488-.481-3.653h-14.126V336Zm0-7.306h12.551a14.04 14.04 0 0 0-3.227-3.648h-9.324v3.648ZM431 350c3.292 0 6.322-1.138 8.717-3.046h-17.434A13.944 13.944 0 0 0 431 350Zm-11.944-6.694h23.888a13.91 13.91 0 0 0 1.575-3.653h-27.038a13.943 13.943 0 0 0 1.575 3.653Z" />
        <path fill="#0052B4"
            d="M423.486 324.188h1.274l-1.187.858.454 1.4-1.186-.864-1.187.864.394-1.203a14.07 14.07 0 0 0-2.718 3.024h.41l-.755.547a13.65 13.65 0 0 0-.339.602l.361 1.104-.673-.492c-.168.358-.322.723-.459 1.094l.399 1.219h1.46l-1.181.87.454 1.394-1.187-.869-.711.519A14.144 14.144 0 0 0 417 336h14v-14c-2.767 0-5.343.804-7.514 2.188Zm.541 10.412-1.186-.864-1.187.864.454-1.395-1.187-.869h1.466l.454-1.395.454 1.395h1.465l-1.187.875.454 1.394v-.005Zm-.454-5.469.454 1.389-1.186-.858-1.187.858.454-1.394-1.187-.859h1.466l.454-1.4.454 1.4h1.465l-1.187.859v.005Zm5.475 5.469-1.187-.864-1.187.864.454-1.395-1.187-.864h1.466l.454-1.394.454 1.394h1.465l-1.186.87.454 1.394v-.005Zm-.454-5.469.454 1.389-1.187-.858-1.187.858.454-1.394-1.187-.859h1.466l.454-1.4.454 1.4h1.465l-1.186.859v.005Zm0-4.085.454 1.4-1.187-.864-1.181.864.454-1.4-1.193-.858h1.466l.454-1.395.459 1.395h1.466l-1.192.858Z" />
    </g>
    <path fill="#FF3A0F" d="M40 114a8 8 0 1 0 0-16 8 8 0 0 0 0 16Z" />
    <path fill="#fff"
        d="m36.856 107.749-.648-1.348-.323.324-.225 1.024h-.905l.773-3.495h.898l-.297 1.367 1.334-1.367h1.157l-1.718 1.638 1.017 1.863h-1.063v-.006Z" />
    <path fill="#fff"
        d="m39.135 107.75.31-1.407-.865-2.094h.971l.476 1.288 1.03-1.288h1.07l-1.783 2.088-.31 1.407h-.899v.006Zm2.563-1.546c0-1.175.905-1.955 1.995-1.955.905 0 1.374.509 1.552 1.037l-.839.271c-.092-.337-.39-.542-.753-.542-.588 0-1.05.509-1.05 1.13 0 .456.33.819.852.819.27 0 .581-.158.74-.39l.674.443c-.397.548-1.011.713-1.46.713-.951.007-1.711-.588-1.711-1.526Z" />
    <rect width="246" height="50" x="370" y="401" fill="#13CE66" rx="8" />
    <path fill="#fff"
        d="M399.336 419.738v2.147h-3.534V433h-2.66v-11.115h-3.534v-2.147h9.728Zm16.533 2.736L412.791 433h-2.869l-1.919-7.353-1.919 7.353h-2.888l-3.097-10.526h2.698l1.862 8.018 2.014-8.018h2.812l1.976 7.999 1.862-7.999h2.546Zm6.113 10.697c-1.013 0-1.925-.222-2.736-.665a4.99 4.99 0 0 1-1.919-1.919c-.456-.823-.684-1.773-.684-2.85 0-1.077.234-2.027.703-2.85a4.95 4.95 0 0 1 1.957-1.9c.823-.456 1.742-.684 2.755-.684s1.932.228 2.755.684a4.827 4.827 0 0 1 1.938 1.9c.481.823.722 1.773.722 2.85 0 1.077-.247 2.027-.741 2.85a5.049 5.049 0 0 1-1.976 1.919c-.823.443-1.748.665-2.774.665Zm0-2.318c.481 0 .931-.114 1.349-.342a2.596 2.596 0 0 0 1.026-1.064c.253-.469.38-1.039.38-1.71 0-1.001-.266-1.767-.798-2.299a2.545 2.545 0 0 0-1.919-.817c-.76 0-1.4.272-1.919.817-.507.532-.76 1.298-.76 2.299s.247 1.773.741 2.318c.507.532 1.14.798 1.9.798Zm17.803-8.531c1.254 0 2.267.399 3.04 1.197.772.785 1.159 1.887 1.159 3.306V433h-2.66v-5.814c0-.836-.209-1.476-.627-1.919-.418-.456-.988-.684-1.71-.684-.735 0-1.318.228-1.748.684-.418.443-.627 1.083-.627 1.919V433h-2.66v-10.526h2.66v1.311a3.595 3.595 0 0 1 1.349-1.064 4.177 4.177 0 0 1 1.824-.399Zm16.513 5.187c0 .38-.025.722-.076 1.026h-7.695c.063.76.329 1.355.798 1.786.469.431 1.045.646 1.729.646.988 0 1.691-.424 2.109-1.273h2.869a4.848 4.848 0 0 1-1.748 2.508c-.861.646-1.919.969-3.173.969-1.013 0-1.925-.222-2.736-.665a4.897 4.897 0 0 1-1.881-1.919c-.443-.823-.665-1.773-.665-2.85 0-1.089.222-2.046.665-2.869a4.638 4.638 0 0 1 1.862-1.9c.798-.443 1.716-.665 2.755-.665 1.001 0 1.894.215 2.679.646a4.46 4.46 0 0 1 1.843 1.843c.443.785.665 1.691.665 2.717Zm-2.755-.76c-.013-.684-.26-1.229-.741-1.634-.481-.418-1.07-.627-1.767-.627-.659 0-1.216.203-1.672.608-.443.393-.716.944-.817 1.653h4.997Zm19.289-4.275L469.754 433h-2.869l-1.919-7.353-1.919 7.353h-2.888l-3.097-10.526h2.698l1.862 8.018 2.014-8.018h2.812l1.976 7.999 1.862-7.999h2.546Zm8.588-2.736v8.208c0 .899.235 1.59.703 2.071.469.469 1.128.703 1.976.703.862 0 1.527-.234 1.995-.703.469-.481.703-1.172.703-2.071v-8.208h2.679v8.189c0 1.127-.247 2.084-.741 2.869a4.58 4.58 0 0 1-1.957 1.748c-.81.393-1.716.589-2.717.589-.988 0-1.887-.196-2.698-.589a4.517 4.517 0 0 1-1.9-1.748c-.468-.785-.703-1.742-.703-2.869v-8.189h2.66Zm18.15 6.46a2.976 2.976 0 0 1 1.843 1.121 3.27 3.27 0 0 1 .722 2.09c0 .709-.177 1.336-.532 1.881-.342.532-.842.95-1.501 1.254-.658.304-1.437.456-2.337.456h-5.719v-13.262h5.472c.9 0 1.672.146 2.318.437.659.291 1.153.697 1.482 1.216a3.14 3.14 0 0 1 .513 1.767c0 .773-.209 1.419-.627 1.938-.405.519-.95.887-1.634 1.102Zm-4.864-.988h2.432c.634 0 1.121-.139 1.463-.418.342-.291.513-.703.513-1.235 0-.532-.171-.944-.513-1.235-.342-.291-.829-.437-1.463-.437h-2.432v3.325Zm2.679 5.624c.646 0 1.147-.152 1.501-.456.368-.304.551-.735.551-1.292 0-.57-.19-1.013-.57-1.33-.38-.329-.893-.494-1.539-.494h-2.622v3.572h2.679Zm13.026 2.299c-1.241 0-2.381-.291-3.42-.874a6.554 6.554 0 0 1-2.47-2.413c-.608-1.039-.912-2.21-.912-3.515 0-1.292.304-2.451.912-3.477a6.51 6.51 0 0 1 2.47-2.432c1.039-.583 2.179-.874 3.42-.874 1.254 0 2.394.291 3.42.874a6.364 6.364 0 0 1 2.451 2.432c.608 1.026.912 2.185.912 3.477 0 1.305-.304 2.476-.912 3.515a6.405 6.405 0 0 1-2.451 2.413c-1.038.583-2.178.874-3.42.874Zm0-2.375c.798 0 1.501-.177 2.109-.532a3.776 3.776 0 0 0 1.425-1.558c.342-.671.513-1.45.513-2.337 0-.887-.171-1.659-.513-2.318-.342-.671-.817-1.184-1.425-1.539-.608-.355-1.311-.532-2.109-.532s-1.507.177-2.128.532c-.608.355-1.083.868-1.425 1.539-.342.659-.513 1.431-.513 2.318s.171 1.666.513 2.337a3.776 3.776 0 0 0 1.425 1.558c.621.355 1.33.532 2.128.532Zm12.79 2.413c-.861 0-1.634-.152-2.318-.456-.684-.317-1.228-.741-1.634-1.273a3.245 3.245 0 0 1-.646-1.767h2.679c.051.405.247.741.589 1.007.355.266.792.399 1.311.399.507 0 .9-.101 1.178-.304.292-.203.437-.462.437-.779 0-.342-.177-.595-.532-.76-.342-.177-.893-.367-1.653-.57-.785-.19-1.431-.386-1.938-.589a3.453 3.453 0 0 1-1.292-.931c-.354-.418-.532-.982-.532-1.691 0-.583.165-1.115.494-1.596.342-.481.824-.861 1.444-1.14.634-.279 1.375-.418 2.223-.418 1.254 0 2.255.317 3.002.95.748.621 1.159 1.463 1.235 2.527h-2.546c-.038-.418-.215-.747-.532-.988-.304-.253-.715-.38-1.235-.38-.481 0-.855.089-1.121.266a.854.854 0 0 0-.38.741c0 .355.178.627.532.817.355.177.906.361 1.653.551.76.19 1.387.386 1.881.589.494.203.919.519 1.273.95.368.418.558.975.57 1.672 0 .608-.171 1.153-.513 1.634-.329.481-.81.861-1.444 1.14-.62.266-1.349.399-2.185.399Zm15.679-8.512h-1.843V433h-2.698v-8.341h-1.197v-2.185h1.197v-.532c0-1.292.367-2.242 1.102-2.85.735-.608 1.843-.893 3.325-.855v2.242c-.646-.013-1.096.095-1.349.323-.253.228-.38.64-.38 1.235v.437h1.843v2.185Zm6.398 8.512c-1.013 0-1.925-.222-2.736-.665a4.99 4.99 0 0 1-1.919-1.919c-.456-.823-.684-1.773-.684-2.85 0-1.077.234-2.027.703-2.85a4.95 4.95 0 0 1 1.957-1.9c.823-.456 1.742-.684 2.755-.684s1.932.228 2.755.684a4.827 4.827 0 0 1 1.938 1.9c.481.823.722 1.773.722 2.85 0 1.077-.247 2.027-.741 2.85a5.049 5.049 0 0 1-1.976 1.919c-.823.443-1.748.665-2.774.665Zm0-2.318c.481 0 .931-.114 1.349-.342a2.596 2.596 0 0 0 1.026-1.064c.253-.469.38-1.039.38-1.71 0-1.001-.266-1.767-.798-2.299a2.545 2.545 0 0 0-1.919-.817c-.76 0-1.4.272-1.919.817-.507.532-.76 1.298-.76 2.299s.247 1.773.741 2.318c.507.532 1.14.798 1.9.798Zm17.379-8.379V433h-2.679v-1.33a3.572 3.572 0 0 1-1.349 1.083c-.544.253-1.14.38-1.786.38-.823 0-1.551-.171-2.185-.513a3.83 3.83 0 0 1-1.501-1.539c-.354-.684-.532-1.495-.532-2.432v-6.175h2.66v5.795c0 .836.209 1.482.627 1.938.418.443.988.665 1.71.665.735 0 1.311-.222 1.729-.665.418-.456.627-1.102.627-1.938v-5.795h2.679Zm8.458-.152c1.254 0 2.267.399 3.04 1.197.772.785 1.159 1.887 1.159 3.306V433h-2.66v-5.814c0-.836-.209-1.476-.627-1.919-.418-.456-.988-.684-1.71-.684-.735 0-1.318.228-1.748.684-.418.443-.627 1.083-.627 1.919V433h-2.66v-10.526h2.66v1.311a3.595 3.595 0 0 1 1.349-1.064 4.177 4.177 0 0 1 1.824-.399Zm6.044 5.377c0-1.064.209-2.008.627-2.831.431-.823 1.014-1.457 1.748-1.9a4.657 4.657 0 0 1 2.451-.665c.684 0 1.337.152 1.957.456.621.291 1.115.684 1.482 1.178v-4.997h2.698V433h-2.698v-1.558c-.329.519-.791.937-1.387 1.254-.595.317-1.285.475-2.071.475a4.523 4.523 0 0 1-2.432-.684c-.734-.456-1.317-1.096-1.748-1.919-.418-.836-.627-1.792-.627-2.869Zm8.284.038c0-.646-.126-1.197-.38-1.653a2.596 2.596 0 0 0-1.026-1.064 2.691 2.691 0 0 0-1.387-.38c-.494 0-.95.12-1.368.361-.418.241-.76.595-1.026 1.064-.253.456-.38 1.001-.38 1.634s.127 1.191.38 1.672c.266.469.608.83 1.026 1.083.431.253.887.38 1.368.38.494 0 .957-.12 1.387-.361a2.757 2.757 0 0 0 1.026-1.064c.254-.469.38-1.026.38-1.672Zm8.716-8.227-.304 9.177h-2.242l-.323-9.177h2.869Zm-1.368 13.623c-.481 0-.88-.146-1.197-.437a1.524 1.524 0 0 1-.456-1.121c0-.443.152-.811.456-1.102.317-.304.716-.456 1.197-.456.469 0 .855.152 1.159.456.304.291.456.659.456 1.102 0 .443-.152.817-.456 1.121-.304.291-.69.437-1.159.437Z" />
    <defs>
        <filter id="a" width="637.606" height="409.36" x="14.394" y="84.14"
            color-interpolation-filters="sRGB" filterUnits="userSpaceOnUse">
            <feFlood flood-opacity="0" result="BackgroundImageFix" />
            <feColorMatrix in="SourceAlpha" values="0 0 0 0 0 0 0 0 0 0 0 0 0 0 0 0 0 0 127 0" />
            <feOffset />
            <feGaussianBlur stdDeviation="5" />
            <feColorMatrix values="0 0 0 0 0 0 0 0 0 0 0 0 0 0 0 0 0 0 0.1 0" />
            <feBlend in2="BackgroundImageFix" result="effect1_dropShadow" />
            <feBlend in="SourceGraphic" in2="effect1_dropShadow" result="shape" />
        </filter>
        <filter id="j" width="85.259" height="85.259" x="309.075" y="127.209"
            color-interpolation-filters="sRGB" filterUnits="userSpaceOnUse">
            <feFlood flood-opacity="0" result="BackgroundImageFix" />
            <feColorMatrix in="SourceAlpha" values="0 0 0 0 0 0 0 0 0 0 0 0 0 0 0 0 0 0 127 0" />
            <feOffset />
            <feGaussianBlur stdDeviation="6" />
            <feColorMatrix values="0 0 0 0 0 0 0 0 0 0 0 0 0 0 0 0 0 0 0.14 0" />
            <feBlend in2="BackgroundImageFix" result="effect1_dropShadow" />
            <feBlend in="SourceGraphic" in2="effect1_dropShadow" result="shape" />
        </filter>
        <filter id="k" width="85.259" height="85.259" x="167.499" y="240.197"
            color-interpolation-filters="sRGB" filterUnits="userSpaceOnUse">
            <feFlood flood-opacity="0" result="BackgroundImageFix" />
            <feColorMatrix in="SourceAlpha" values="0 0 0 0 0 0 0 0 0 0 0 0 0 0 0 0 0 0 127 0" />
            <feOffset />
            <feGaussianBlur stdDeviation="6" />
            <feColorMatrix values="0 0 0 0 0 0 0 0 0 0 0 0 0 0 0 0 0 0 0.14 0" />
            <feBlend in2="BackgroundImageFix" result="effect1_dropShadow" />
            <feBlend in="SourceGraphic" in2="effect1_dropShadow" result="shape" />
        </filter>
        <filter id="l" width="85.259" height="85.259" x="108.282" y="334.127"
            color-interpolation-filters="sRGB" filterUnits="userSpaceOnUse">
            <feFlood flood-opacity="0" result="BackgroundImageFix" />
            <feColorMatrix in="SourceAlpha" values="0 0 0 0 0 0 0 0 0 0 0 0 0 0 0 0 0 0 127 0" />
            <feOffset />
            <feGaussianBlur stdDeviation="6" />
            <feColorMatrix values="0 0 0 0 0 0 0 0 0 0 0 0 0 0 0 0 0 0 0.14 0" />
            <feBlend in2="BackgroundImageFix" result="effect1_dropShadow" />
            <feBlend in="SourceGraphic" in2="effect1_dropShadow" result="shape" />
        </filter>
        <filter id="m" width="85.259" height="85.259" x="217.187" y="334.127"
            color-interpolation-filters="sRGB" filterUnits="userSpaceOnUse">
            <feFlood flood-opacity="0" result="BackgroundImageFix" />
            <feColorMatrix in="SourceAlpha" values="0 0 0 0 0 0 0 0 0 0 0 0 0 0 0 0 0 0 127 0" />
            <feOffset />
            <feGaussianBlur stdDeviation="6" />
            <feColorMatrix values="0 0 0 0 0 0 0 0 0 0 0 0 0 0 0 0 0 0 0.14 0" />
            <feBlend in2="BackgroundImageFix" result="effect1_dropShadow" />
            <feBlend in="SourceGraphic" in2="effect1_dropShadow" result="shape" />
        </filter>
        <filter id="n" width="85.259" height="85.259" x="388.71" y="240.197"
            color-interpolation-filters="sRGB" filterUnits="userSpaceOnUse">
            <feFlood flood-opacity="0" result="BackgroundImageFix" />
            <feColorMatrix in="SourceAlpha" values="0 0 0 0 0 0 0 0 0 0 0 0 0 0 0 0 0 0 127 0" />
            <feOffset />
            <feGaussianBlur stdDeviation="6" />
            <feColorMatrix values="0 0 0 0 0 0 0 0 0 0 0 0 0 0 0 0 0 0 0.14 0" />
            <feBlend in2="BackgroundImageFix" result="effect1_dropShadow" />
            <feBlend in="SourceGraphic" in2="effect1_dropShadow" result="shape" />
        </filter>
        <filter id="o" width="85.259" height="85.259" x="503.741" y="240.197"
            color-interpolation-filters="sRGB" filterUnits="userSpaceOnUse">
            <feFlood flood-opacity="0" result="BackgroundImageFix" />
            <feColorMatrix in="SourceAlpha" values="0 0 0 0 0 0 0 0 0 0 0 0 0 0 0 0 0 0 127 0" />
            <feOffset />
            <feGaussianBlur stdDeviation="6" />
            <feColorMatrix values="0 0 0 0 0 0 0 0 0 0 0 0 0 0 0 0 0 0 0.14 0" />
            <feBlend in2="BackgroundImageFix" result="effect1_dropShadow" />
            <feBlend in="SourceGraphic" in2="effect1_dropShadow" result="shape" />
        </filter>
        <filter id="v" width="48" height="48" x="237" y="404" color-interpolation-filters="sRGB"
            filterUnits="userSpaceOnUse">
            <feFlood flood-opacity="0" result="BackgroundImageFix" />
            <feColorMatrix in="SourceAlpha" values="0 0 0 0 0 0 0 0 0 0 0 0 0 0 0 0 0 0 127 0" />
            <feOffset />
            <feGaussianBlur stdDeviation="5" />
            <feColorMatrix values="0 0 0 0 0 0 0 0 0 0 0 0 0 0 0 0 0 0 0.2 0" />
            <feBlend in2="BackgroundImageFix" result="effect1_dropShadow" />
            <feBlend in="SourceGraphic" in2="effect1_dropShadow" result="shape" />
        </filter>
        <filter id="x" width="48" height="48" x="407" y="312" color-interpolation-filters="sRGB"
            filterUnits="userSpaceOnUse">
            <feFlood flood-opacity="0" result="BackgroundImageFix" />
            <feColorMatrix in="SourceAlpha" values="0 0 0 0 0 0 0 0 0 0 0 0 0 0 0 0 0 0 127 0" />
            <feOffset />
            <feGaussianBlur stdDeviation="5" />
            <feColorMatrix values="0 0 0 0 0 0 0 0 0 0 0 0 0 0 0 0 0 0 0.1 0" />
            <feBlend in2="BackgroundImageFix" result="effect1_dropShadow" />
            <feBlend in="SourceGraphic" in2="effect1_dropShadow" result="shape" />
        </filter>
        <clipPath id="i">
            <path fill="#fff" d="M0 0h9.831v9.887H0z" transform="translate(35.123 216.989)" />
        </clipPath>
        <clipPath id="p">
            <use xlink:href="#y" transform="translate(123.685 350.211)" />
        </clipPath>
        <clipPath id="q">
            <use xlink:href="#y" transform="translate(404.794 256.281)" />
        </clipPath>
        <clipPath id="r">
            <use xlink:href="#y" transform="translate(232.589 350.211)" />
        </clipPath>
        <clipPath id="s">
            <use xlink:href="#y" transform="translate(519.825 256.281)" />
        </clipPath>
        <clipPath id="t">
            <use xlink:href="#y" transform="translate(182.902 256.281)" />
        </clipPath>
        <clipPath id="u">
            <use xlink:href="#y" transform="translate(324.478 143.294)" />
        </clipPath>
        <clipPath id="w">
            <path fill="#fff" d="M0 0h28v28H0z" transform="translate(417 322)" />
        </clipPath>
        <pattern id="b" width="1" height="1" patternContentUnits="objectBoundingBox">
            <use xlink:href="#z" transform="scale(.00044 .00287)" />
        </pattern>
        <pattern id="d" width="1" height="1" patternContentUnits="objectBoundingBox">
            <use xlink:href="#A" transform="scale(.00295 .01235)" />
        </pattern>
    </defs>
</svg>