<svg xmlns="http://www.w3.org/2000/svg" xml:space="preserve" width="256" height="256">
  <g fill="none" stroke-miterlimit="10" stroke-width="0">
    <path fill="#e0ad31" d="m208.049 100.212-147.66 5.485c-4.887 0-7.736 1.83-9.082 6.528l-30.652 104.86c-1.267 4.457-7.342 6.542-11.568 6.542a7.702 7.702 0 0 1-7.68-7.68V42.788a10.7 10.7 0 0 1 10.7-10.7h76.028c2.838 0 5.558 1.126 7.564 3.133l22.059 22.058a10.7 10.7 0 0 0 7.564 3.133h72.026a10.7 10.7 0 0 1 10.7 10.7v29.101z"/>
    <path fill="#ffc843" d="M9.087 223.627c4.223 0 6.412-3.223 7.68-7.68L47.664 108.15a10.953 10.953 0 0 1 10.532-7.935h189.335a6.772 6.772 0 0 1 6.494 8.683L223.408 212.94c-1.382 4.92-4.414 10.729-10.686 10.686H9.087z"/>
  </g>
</svg>