<svg xmlns="http://www.w3.org/2000/svg" width="1em" height="1em" viewBox="0 0 24 24">
  <path fill="currentColor"
    d="M3.71 16.29a1 1 0 0 0-.33-.21a1 1 0 0 0-.76 0a1 1 0 0 0-.33.21a1 1 0 0 0-.21.33a1 1 0 0 0 .21 1.09a1.15 1.15 0 0 0 .33.21a.94.94 0 0 0 .76 0a1.15 1.15 0 0 0 .33-.21a1 1 0 0 0 .21-1.09a1 1 0 0 0-.21-.33M7 8h14a1 1 0 0 0 0-2H7a1 1 0 0 0 0 2m-3.29 3.29a1 1 0 0 0-1.09-.21a1.15 1.15 0 0 0-.33.21a1 1 0 0 0-.21.33a.94.94 0 0 0 0 .76a1.15 1.15 0 0 0 .21.33a1.15 1.15 0 0 0 .33.21a.94.94 0 0 0 .76 0a1.15 1.15 0 0 0 .33-.21a1.15 1.15 0 0 0 .21-.33a.94.94 0 0 0 0-.76a1 1 0 0 0-.21-.33M21 11H7a1 1 0 0 0 0 2h14a1 1 0 0 0 0-2M3.71 6.29a1 1 0 0 0-.33-.21a1 1 0 0 0-1.09.21a1.15 1.15 0 0 0-.21.33a.94.94 0 0 0 0 .76a1.15 1.15 0 0 0 .21.33a1.15 1.15 0 0 0 .33.21a1 1 0 0 0 1.09-.21a1.15 1.15 0 0 0 .21-.33a.94.94 0 0 0 0-.76a1.15 1.15 0 0 0-.21-.33M21 16H7a1 1 0 0 0 0 2h14a1 1 0 0 0 0-2" />
</svg>