<svg xmlns="http://www.w3.org/2000/svg" width="258.808" height="54.308"
  viewBox="58.096 160.346 258.808 54.308">
  <defs>
    <clipPath id="c">
      <path d="M0 0h27v27H0z" />
    </clipPath>
    <clipPath id="d">
      <path d="M.633.828h25.5v25.5H.633Zm0 0" />
    </clipPath>
    <filter id="a" width="100%" height="100%" x="0%" y="0%">
      <feColorMatrix
        color-interpolation-filters="sRGB"
        values="0 0 0 0 1 0 0 0 0 1 0 0 0 0 1 0 0 0 1 0"
      />
    </filter>
    <mask id="b">
      <g filter="url(#a)">
        <path fill="currentColor" fill-opacity=".627" d="M-37.5-37.5h450v450h-450z" />
      </g>
    </mask>
  </defs>
  <path
    fill="currentColor"
    d="M76.182 194.923a4.535 4.535 0 0 0 4.52-4.52v-13.562c0-2.488-2.036-4.523-4.52-4.523H58.096v22.605Zm-13.563-18.082h13.563v13.562H62.619Zm24.865-4.523a4.536 4.536 0 0 0-4.523 4.523v18.082h4.523v-9.043h13.563v9.043h4.52v-18.082c0-2.488-2.036-4.523-4.52-4.523Zm0 4.523h13.563v4.52H87.484Zm31.647 18.082c.989 0 2.004-.367 2.825-1.074l7.628-6.555c.54-.48.82-1.074.82-1.809l.028-13.168h-4.52v12.153l-6.78 5.847-6.782-5.847v-12.153h-4.523v13.168c0 .707.312 1.328.847 1.809l7.63 6.555c.847.707 1.839 1.074 2.827 1.074Zm36.166 0v-4.52h-9.043v-13.562h9.043v-4.524h-22.605v4.524h9.043v13.562h-9.043v4.52Zm20.346 0a4.535 4.535 0 0 0 4.52-4.52v-13.562c0-2.489-2.036-4.524-4.52-4.524h-18.086v22.606Zm-13.562-18.082h13.562v13.562h-13.562Zm55.379-4.524h-18.08a4.536 4.536 0 0 0-4.524 4.524v4.52c0 2.484 2.035 4.519 4.524 4.519h13.562v4.523h-18.086v4.52h18.086a4.535 4.535 0 0 0 4.52-4.52v-4.523a4.535 4.535 0 0 0-4.52-4.52H199.38v-4.52h18.082Zm24.865 22.606v-4.52h-9.043v-13.562h9.043v-4.523h-22.604v4.523h9.043v13.562h-9.044v4.52Zm6.785-22.606a4.536 4.536 0 0 0-4.524 4.524v18.082h4.523V176.84h4.52v18.082h4.52V176.84h4.523v18.082h4.52V176.84c0-2.489-2.036-4.524-4.52-4.524Zm49.712 22.606v-14.89l14.21 14.21c.427.426.99.68 1.61.68a2.266 2.266 0 0 0 2.262-2.262v-20.344h-4.52v14.891l-14.214-14.211a2.254 2.254 0 0 0-1.61-.68 2.27 2.27 0 0 0-2.262 2.262v20.344Zm0 0"
  />
  <g mask="url(#b)" transform="translate(13.036 17.648)">
    <g clip-path="url(#c)" transform="translate(254 153)">
      <g clip-path="url(#d)">
        <path
          fill="currentColor"
          d="M13.363.828C6.422.828.648 6.555.648 13.445c-.003 7.192 5.625 12.883 12.739 12.883 7.015 0 12.718-5.707 12.726-12.734C26.121 6.57 20.387.828 13.363.828Zm10.262 11.406-.012-.07c-.035-.176-.191-.434-.086-.508.153-.11.364.09.551.156.129.043.242.13.367.18.184.074.297.176.211.38-.035.886-.125 1.75-.32 2.6-.02.079-.059.153-.059.231-.007.145-.113.184-.207.184-.14-.004-.086-.14-.086-.219-.004-.992-.152-1.969-.359-2.934ZM7.457 22.47c.016-.032.027-.059.043-.09.559.078 1.117.156 1.77.25-.43.137-.77.297-1.125.344-.352.043-.457-.332-.688-.504Zm.477 1.21c.199.321.418.626.675 1.005a11.97 11.97 0 0 1-1.375-.657c-.164-.09-.144-.183-.039-.297.047-.05.094-.101.145-.144.344-.293.351-.285.594.094Zm-.383-1.452c-.149-.028-.211-.106-.258-.239a13.97 13.97 0 0 1-.723-3.218c-.039-.356-.05-.711-.086-1.067-.02-.191.024-.289.239-.32.5-.074 1-.156 1.488-.266.258-.058.32.067.363.258.168.758.395 1.5.645 2.234.285.836.613 1.653 1.011 2.442.196.383.188.387-.226.465-.055.007-.113.02-.156.027-.778-.098-1.543-.176-2.297-.316ZM2.766 12.004c.02.61.043 1.219.16 1.82.094.496.191.992.285 1.489.012.074.098.156.023.222-.07.059-.148 0-.218-.031a13.76 13.76 0 0 0-.696-.3c-.199-.083-.285-.22-.234-.434.059-.899.156-1.797.352-2.68.011-.047.039-.086.05-.13.024-.105.086-.17.192-.155.113.015.082.125.086.199Zm.14-1.059c-.023-.675.348-1.28.625-1.918.051-.117.125-.132.246-.074 1.016.496 2.098.79 3.2 1.02.082.015.261-.032.238.164-.02.148-.035.277-.242.316-1 .18-2 .36-2.97.672-.257.082-.53.145-.776.262-.309.148-.348.015-.32-.246.003-.047 0-.09 0-.196Zm16.367-6.14c-.566-.082-1.113-.164-1.66-.242v-.055c.305-.098.606-.2.91-.293.247-.074.559.164.75.59Zm-.476-1.34c-.192-.305-.402-.598-.645-.957.54.191.977.43 1.414.676.106.058.094.144.016.226-.039.043-.074.086-.117.125-.36.352-.402.344-.668-.07Zm.375 1.48c.164.028.234.102.285.246.387 1.075.613 2.184.734 3.317.036.332.043.664.079.996.015.168-.043.258-.207.289-.543.094-1.086.187-1.625.293-.223.043-.22-.133-.247-.246a24.526 24.526 0 0 0-.668-2.297 18.909 18.909 0 0 0-1.011-2.434c-.2-.39-.188-.406.238-.433.102-.008.207-.012.305-.016a27.04 27.04 0 0 1 2.117.285Zm2.914 4.282c-.45.14-.898.273-1.348.41-.273.082-.32-.024-.332-.246a15.598 15.598 0 0 0-.445-3.032c-.102-.41-.23-.808-.348-1.214.48.351.828.8 1.172 1.257.57.758 1.047 1.57 1.485 2.407.128.25.074.34-.184.418Zm.437.144c.258.61.512 1.219.696 1.926-.907-.281-1.75-.524-2.617-.656-.075-.012-.118-.047-.145-.121-.14-.383.008-.68.41-.778.469-.113.926-.258 1.375-.426.106-.039.211-.109.281.055Zm-2.234 2.23a25.457 25.457 0 0 1-.723 4.762c-.062.25-.246.297-.433.285-.207-.011-.13-.214-.13-.332a25.78 25.78 0 0 0-.616-5.554c-.04-.192-.028-.328.246-.278.492.086.992.145 1.492.215.152.02.168.117.164.25-.008.215 0 .434 0 .653Zm-1.086 5.493c-.078-.028-.21.02-.191-.13.027-.163.164-.171.289-.179.078-.004.137.024.113.125-.039.09-.035.238-.21.184Zm.07.308c-.07.188-.136.38-.203.57L19 17.97v-.614c0-.109.05-.14.152-.109.082.024.16.04.121.156Zm-4.835-.746c-.247.004-.208-.168-.2-.312.059-.918.07-1.84.133-2.762 0-.918.008-1.84-.004-2.762 0-.203.055-.265.266-.28.87-.06 1.746-.056 2.613-.185.043-.007.09-.003.137-.003.71-.012.758.015.906.703.23 1.086.363 2.187.465 3.293.066.675.016 1.359.121 2.03.043.267-.086.321-.32.36-1.38.223-2.746-.125-4.117-.082Zm1.82.215c-.606.09-1.211.168-1.82.137-.083-.004-.2.035-.196-.117.004-.118.102-.11.176-.106.613.027 1.227.059 1.84.086Zm-2.14-.5c.003.211-.079.281-.29.27a8.542 8.542 0 0 0-1-.008c-.238.015-.32-.055-.316-.305.011-.922.14-4.605.133-5.527-.004-.2.062-.262.253-.25.325.011.649.023.97 0 .28-.024.378.062.366.36-.066 1.472-.015 2.948-.105 4.421-.02.348-.02.691-.012 1.04Zm-2.04.29c-1.012.03-2.02.085-3.031.144-.352.02-.48-.125-.555-.473-.36-1.723-.52-3.469-.605-5.223-.035-.652-.024-.613.62-.703.661-.09 1.306-.011 1.958.024.543.027 1.203.082 1.77.11.09.003.16.077.16.167v5.602c0 .242-.047.34-.317.351Zm.113.347c-.578-.024-1.156-.055-1.734-.082v-.063c.582-.023 1.16-.054 1.738-.078.075 0 .176-.023.184.098.012.144-.106.129-.188.125Zm-5.75-.133c-.02-.113-.046-.27.172-.234.383.058.766.109 1.149.164.168.027.332.05.5.074l.011.062c-.566.11-1.128.247-1.699.313-.222.023-.11-.242-.133-.379Zm1.625-.184a12.785 12.785 0 0 0-1.386-.214c-.227-.024-.25-.133-.227-.317.024-.207.031-.414.047-.62.05-1.602.3-3.177.688-4.731.058-.246.207-.274.398-.262.215.015.14.203.152.32.063.594.028 1.192.078 1.79a30.03 30.03 0 0 0 .536 3.734c.058.285.043.375-.286.3Zm-.441-6.746c-.133-.015-.18-.082-.133-.21l.2-.563c.023.008.046.012.07.02 0 .19 0 .386-.004.578 0 .09.012.195-.133.175Zm-.086.13c.098.01.184.027.18.152-.004.156-.121.144-.223.144-.078 0-.18.016-.156-.113.02-.106.058-.2.2-.184Zm4.777.304c-.617.012-1.23-.05-1.843-.133.617-.004 1.23-.078 1.847-.098.082-.003.2-.03.2.114-.004.144-.122.113-.204.117Zm1.614 6.629c-.215.004-.434 0-.653 0h-.617c-.07 0-.14-.02-.14-.113 0-.094.07-.11.14-.11.422-.004.848-.004 1.27 0 .074 0 .144.016.14.11-.004.085-.062.113-.14.113Zm.12.426c-.058 1.093-.113 2.183-.175 3.273-.023.45-.078.895-.102 1.344-.007.156-.05.23-.218.219-.125-.012-.25-.004-.38-.004-.577 0-.585 0-.593-.598-.008-.668-.062-3.453-.074-4.176-.004-.215.043-.316.281-.3.344.019.691.011 1.035.003.184-.008.239.063.227.239Zm-1.226-7.29h.653c.183 0 .367-.003.55 0 .086.004.2-.023.196.126 0 .109-.086.12-.168.125a8.19 8.19 0 0 1-1.239-.008c-.066-.004-.14-.012-.144-.106-.008-.11.066-.133.152-.136Zm1.559.106c.012-.121.11-.105.183-.098.52.078 1.047.055 1.567.098-.52.156-1.047.105-1.567.133-.09.004-.195.008-.183-.133Zm5.906.254c-.02.117-.129.031-.2.023-.573-.086-1.148-.172-1.804-.265.652-.121 1.223-.227 1.793-.328.07-.012.184-.051.2.058.023.168.035.348.011.512Zm-2.246-.633c.047.191-.02.29-.219.29-.14-.005-.277 0-.414 0-.941-.044-1.879-.165-2.82-.138-.164.008-.223-.054-.219-.218.027-1.555-.043-3.11-.078-4.664-.004-.2.066-.25.254-.258a18.61 18.61 0 0 0 1.406-.121c.156-.016.23.031.293.16.805 1.574 1.36 3.242 1.797 4.95Zm-3.582-5.11c-.098.016-.184-.007-.188-.136-.007-.137.086-.145.184-.14.488.027.977.054 1.461.077-.473.176-.973.13-1.457.2Zm1.309-.343c-.47-.02-.942-.047-1.41-.07-.083-.004-.118-.055-.122-.133-.047-.707-.097-1.414-.148-2.2.773.676 1.308 1.426 1.77 2.235.074.129.035.172-.09.168Zm-1.801.348h-.446v.004c-.113 0-.23.003-.343-.004-.075 0-.172.011-.16-.114.011-.082.023-.172.128-.175.286 0 .57 0 .856.007.09 0 .105.067.11.141.007.11-.052.14-.145.14Zm-.696.148c.036.008.07.004.106.004.773.008.781.008.797.809.011.609.05 3.285.066 4.007.004.246-.101.29-.312.274-.332-.02-.664-.024-1-.016-.188.008-.239-.062-.23-.238.038-.762.058-1.52.105-2.277.047-.77.125-1.54.172-2.309.015-.219.097-.285.296-.254Zm-.64-.148c-.613-.043-1.227-.09-1.84-.133l.012-.082c.605-.024 1.21-.055 1.816-.074.098-.004.246-.059.25.136.004.188-.133.16-.238.153Zm-.035.129c.16 0 .25.02.234.23-.105 1.54-.2 3.078-.289 4.617-.012.172-.035.281-.246.278a24.691 24.691 0 0 0-2.797.136c-.59.02-1.004-.097-1.426-.133-.246-.023-.152-.195-.164-.332-.12-1.62.77-2.886 1.438-4.234.304-.617.664-.922 1.402-.723.594.16 1.227.16 1.848.16Zm-4.473 2.62c-.078-.39.05-.765.113-1.14.078-.457.227-.906.325-1.36.042-.187.12-.277.32-.273.238.004.472-.105.77-.035a25.55 25.55 0 0 0-1.528 2.809Zm.586-3.449c-.05.11-.149.09-.238.055-.207-.082-.434-.133-.633-.289a7.252 7.252 0 0 1 1.351-.867c-.187.426-.332.765-.48 1.101Zm-.871-.05c.168.082.34.14.508.214.093.043.254.028.234.2-.023.156-.137.222-.285.246-.453.074-.902.156-1.356.226-.12.02-.23.114-.421.024.351-.305.675-.59 1.003-.871.094-.082.2-.094.317-.04Zm.5.804c.027-.004.062.02.105.032-.328 1.113-.5 2.25-.633 3.398-.062.512-.308 1.004-.472 1.504-.04.113-.11.121-.215.098-1.105-.227-2.191-.5-3.215-.989-.183-.09-.219-.16-.117-.351a15.795 15.795 0 0 1 2.324-3.188c.055-.054.121-.12.192-.136.671-.153 1.343-.297 2.03-.368ZM3.848 8.086c-.07.117-.133.242-.207.355-.047.075-.043.223-.204.157-.132-.059-.152-.157-.117-.282.082-.265.157-.53.239-.789.062-.187.156-.363.203-.55.265-1.09 1.031-1.543 2.12-1.637a14.044 14.044 0 0 0-2.034 2.746Zm-.508.629c.066.031.144.058.082.168-.094.16-.14.347-.277.504-.083-.219.042-.39.054-.578.004-.07.055-.13.14-.094Zm-.434 3.234c-.004-.136-.02-.27.156-.336 1.239-.476 2.528-.754 3.836-.984.16-.02.188.055.149.207-.332 1.195-.52 2.422-.64 3.652-.055.551-.071 1.106-.09 1.657-.008.187-.044.273-.258.226-.79-.168-1.575-.36-2.348-.605-.168-.051-.273-.13-.316-.313-.286-1.148-.48-2.312-.489-3.504Zm3.2 4.578c.269.043.21.258.199.43-.008.16.093.352-.2.422-.543.133-1.078.312-1.609.488-.129.04-.215.063-.277-.082-.262-.605-.508-1.219-.688-1.902.875.265 1.711.508 2.574.644Zm-1.102 1.305c.324-.102.66-.184.984-.289.23-.07.332-.059.352.234.074 1.22.25 2.418.598 3.59.07.238.148.473.222.711-1.055-1-1.863-2.148-2.512-3.41-.32-.617-.312-.625.356-.836Zm3.707-.504c-.047-.191-.027-.262.195-.308.469-.09.922.02 1.371.058.618.055 1.239.02 1.856.098.215.027.262.094.258.293-.008.758.058 3.773.07 4.52.004.195-.027.284-.254.292-.434.02-.867.07-1.3.121-.223.028-.348-.039-.454-.25-.773-1.539-1.312-3.16-1.742-4.824Zm3.594 5.098c.093-.004.156.023.16.125.008.117-.067.133-.156.129l-1.504-.07c.496-.145 1-.153 1.5-.184Zm.011.39c.121.004.196.055.204.184.046.676.093 1.352.136 2.027.004.016-.02.035-.058.09-.746-.664-1.305-1.453-1.758-2.3h1.476Zm.461-.414c.27-.004.543-.007.817-.007.078 0 .129.039.125.125-.004.082-.016.164-.125.168-.137.003-.274 0-.41 0v-.004h-.375c-.082 0-.16-.008-.164-.122-.004-.093.03-.156.132-.16Zm1.04.645c.015-.149.074-.2.214-.203.867-.035 1.739-.074 2.7-.114-.872 1.18-1.801 2.16-3.044 2.801-.054.028-.124.09-.18.028-.027-.032-.015-.11-.003-.164.152-.774.25-1.56.312-2.348Zm.07-.496c.008-.153.113-.153.218-.145l1.336.106c.137.011.27.02.407.027-.586.16-1.184.14-1.778.145-.09.003-.191.011-.183-.133Zm2.726-.035a14.985 14.985 0 0 0-2.398-.239c-.297-.007-.313-.101-.29-.359.095-1.242.165-2.48.24-3.723.007-.125.003-.254.01-.379.028-.601.028-.582.61-.632.871-.079 1.742-.079 2.613-.168.422-.043.86.09 1.293.148.133.016.145.113.141.23-.012.196-.004.391-.004.586.063.536-.105 1.016-.316 1.5-.434.993-.914 1.954-1.508 2.86-.102.152-.195.215-.39.176Zm2.024-2.88c.07.395-.063.774-.121 1.15-.07.437-.223.862-.309 1.296-.047.246-.16.355-.402.367-.227.012-.453.043-.746.074.617-.953 1.113-1.906 1.578-2.886Zm-.29 3.438c.18.09.485.102.516.27.028.144-.265.246-.422.351-.27.188-.55.348-.828.52a.474.474 0 0 1-.039-.055c.137-.312.293-.62.414-.941.075-.203.18-.227.36-.145Zm.048-.129c-.09-.043-.25-.023-.22-.203.024-.16.126-.21.282-.234.586-.09 1.172-.2 1.754-.305.016.016.027.035.039.05-.355.306-.71.606-1.066.911-.086.074-.16.047-.25.008-.176-.082-.364-.145-.54-.227Zm-.094-.578c.336-1.183.512-2.344.652-3.512.055-.48.3-.933.45-1.402.054-.168.171-.137.277-.113 1.093.215 2.164.5 3.175.976.184.086.196.176.106.348a15.13 15.13 0 0 1-2.324 3.184c-.063.066-.121.125-.223.148-.68.152-1.363.297-2.113.371Zm4.191-2.61c.211-.343.406-.69.613-1.034.051-.082.075-.211.223-.133.113.055.137.148.106.258-.227.847-.536 1.66-.957 2.43a.359.359 0 0 1-.18.152c-.438.16-.879.32-1.356.39.551-.668 1.094-1.332 1.551-2.062Zm.922-1.292c-.078-.031-.137-.074-.082-.18.09-.164.164-.336.285-.586.055.297-.043.477-.066.664-.008.063-.043.14-.137.102Zm-.203-.297c-.059.125-.14.102-.25.05-1.016-.5-2.098-.788-3.203-1.007-.098-.02-.25-.012-.215-.195.023-.121.012-.27.18-.293a20.088 20.088 0 0 0 4.101-1.028c.14.926-.238 1.7-.613 2.473Zm.2-2.492c-1.106.383-2.24.633-3.384.844-.363.07-.37.05-.28-.31.421-1.679.632-3.386.69-5.112.008-.239.028-.332.313-.274.781.16 1.555.356 2.316.598.164.055.25.14.29.297.28 1.082.437 2.183.5 3.37.109.325-.11.473-.446.587Zm1.394-3.426c.683.25 1.133.86 1.12 1.46-.003.317-.183.532-.382.743-.3.32-.66.55-1.09.758.195-1.004.383-1.965.352-2.961Zm-.5-4.395c.886 1.532 1.414 3.149 1.53 4.899-.3-.254-.589-.496-.917-.684-.129-.074-.117-.18-.117-.293.023-1.207-.203-2.37-.555-3.515-.05-.172-.047-.172.059-.407Zm.308 3.176c.012.207.028.414.04.574.054.274-.032.317-.223.204-.008-.008-.02-.016-.028-.016-.754-.203-1.218-.652-1.347-1.457-.047-.309-.211-.606-.352-.89-.094-.2-.082-.298.137-.387.379-.16.734-.38 1.039-.657.152-.14.203-.129.262.078.25.832.418 1.68.472 2.551Zm-.472-3.738c-.157-.227-.313-.453-.465-.676a.773.773 0 0 1 .465.676Zm-1.215-1.91.594.754c-.387-.102-.426-.477-.696-.676.035-.024.067-.05.102-.078Zm.383 1.09c.222.449.441.902.625 1.375.062.168.046.273-.082.39-.34.32-.739.535-1.153.739-.207.097-.234-.07-.289-.184a15.466 15.466 0 0 0-1.691-2.715c-.246-.316-.508-.617-.817-.992 1.055.226 2 .488 2.899.902.226.11.394.254.508.485Zm-.813-1.016c.086.086.164.18.246.273-.855-.296-1.703-.574-2.578-.726-.523-.094-.797-.383-.984-.836-.063-.148-.051-.23.09-.305.09-.047.199-.101.246-.183.261-.477.53-.223.816-.032a13.128 13.128 0 0 1 2.164 1.809Zm-2.648-2.613c.593.226 1.988 1.43 2.343 2.035-.113 0-.16-.086-.222-.137a12.694 12.694 0 0 0-1.895-1.422c-.195-.117-.273-.257-.226-.476Zm-.16.176c-.731-.442-1.625-.567-2.243-1.211.828.254 1.739.355 2.242 1.21Zm-2.426-1.063c-.567-.129-1.121-.289-1.68-.43.582.059 1.203-.03 1.68.43Zm.406.363c.45.203.68.703.945 1.121.094.145.317.368.207.457-.18.149-.324-.125-.465-.234-1.066-.832-2.222-1.504-3.511-1.941-.082-.032-.164-.067-.246-.098 1.066.066 2.105.258 3.07.695Zm.918 1.723c-.785.242-1.484.547-2.277.398a.345.345 0 0 1-.266-.191c-.523-.938-1.14-1.8-1.98-2.484-.024-.016-.02-.063-.036-.137 1.707.437 3.172 1.266 4.559 2.414ZM13.5 1.602c.18.027.387.144.41.398.043.48.094.957.137 1.434.012.128.012.253.023.378.063.543.063.543-.46.536-.57-.012-.57-.012-.497-.578.078-.61.149-1.227.25-1.833.02-.117-.015-.359.137-.335Zm-.563 2.523c-.015.215-.144.23-.308.227-.848-.02-1.695.058-2.613.117.875-1.235 1.875-2.254 3.273-2.938-.168.91-.297 1.75-.351 2.594Zm-.265-2.473c-.356.27-.688.508-1.004.766a8.687 8.687 0 0 0-1.629 1.777c-.164.235-.332.262-.582.2-.66-.168-.645-.157-.39-.79.245-.617.644-1.035 1.288-1.265.707-.254 1.415-.508 2.141-.695.043-.012.09.003.176.007Zm-1.996.051c.394-.039.781-.16 1.187-.11-.605.25-1.234.4-1.793.731-.039.024-.129.02-.16-.008-.05-.046.004-.105.043-.144.195-.227.39-.438.723-.469Zm-.656-.035c-.887.254-1.75.566-2.594.922.77-.582 1.664-.805 2.594-.922ZM7.352 2.832c.804-.39 1.628-.715 2.515-.902-.207.351-.398.687-.785.879-.437.214-.844.5-1.238.796-.223.165-.469.063-.676-.27-.16-.253-.055-.386.184-.503Zm-.446.266c.078.261.223.476.446.632.109.075.132.125.015.227-.406.352-.8.719-1.21 1.07-.16.141-.384.133-.575.2-.344.113-.691.21-1.117.34.664-1.047 1.32-1.973 2.441-2.47Zm-1.89 1.34c-.465.558-.625 1.414-1.586 1.566.496-.617 1-1.129 1.586-1.566ZM3.02 6.558c.285-.265.62-.46 1.07-.628-.39.777-.68 1.5-.88 2.254-.058.214-.132.16-.253.058-.57-.48-.555-1.097.063-1.683Zm-.665 1.005c.157.41.383.699.68.933.102.082.04.2.024.297-.16.922-.317 1.844-.637 2.727-.047.125-.09.242-.235.312-.488.25-.949.543-1.355 1.063.11-1.934.586-3.657 1.523-5.332ZM.848 13.375c.14-.766.82-1.035 1.433-1.422-.09.547-.187 1.024-.25 1.508-.058.476-.078.953-.117 1.5-.625-.402-1.21-.785-1.066-1.586Zm1.62 5.848c-.109.05-.12-.075-.155-.133a11.788 11.788 0 0 1-1.446-4.8c.301.355.582.589.899.773.129.074.16.183.164.316.02 1.23.218 2.43.586 3.605.027.09.058.192-.047.239Zm.15-.508c-.247-.824-.427-1.656-.466-2.516-.011-.297-.125-.586-.05-.91.382.16.738.313 1.093.457.121.047.18.133.211.25.18.606.395 1.2.653 1.774.082.18.054.261-.122.34a3.95 3.95 0 0 0-1.078.667c-.117.11-.175.149-.242-.062Zm.89 2.098c-.281-.481-.488-1-.7-1.516-.054-.145-.027-.242.07-.34.345-.336.759-.555 1.184-.758.211-.097.227.086.282.196a15.951 15.951 0 0 0 1.82 2.875c.203.25.41.492.68.82-1.133-.242-2.14-.524-3.09-1-.121-.063-.184-.168-.246-.277Zm.539.628c.683.227 1.36.47 2.058.625.157.036.313.094.47.11.542.043.82.387 1.007.855.043.117.055.223-.062.25-.31.074-.407.64-.739.453-1.043-.586-1.945-1.367-2.734-2.293Zm2.848 2.922c-.95-.558-1.727-1.281-2.43-2.129.125-.023.164.059.21.106a12.531 12.531 0 0 0 1.997 1.512c.191.117.266.261.223.511Zm.152-.308c.742.55 1.633.66 2.281 1.273-.691.074-2.137-.691-2.281-1.273Zm2.34 1.113 1.68.441c-.563-.027-1.153.055-1.68-.441Zm.207-.102c-.903-.238-1.223-1.011-1.668-1.68-.028-.038-.043-.085-.008-.124.043-.055.102-.047.156-.016.028.02.055.04.082.063a12.738 12.738 0 0 0 3.922 2.25c-.851-.047-1.664-.274-2.484-.493Zm2.125.172c-1.219-.445-2.317-1.105-3.328-1.914-.2-.164-.168-.234.054-.293.637-.176 1.262-.422 1.95-.304.101.02.203.015.261.125a9.556 9.556 0 0 0 2.035 2.582c.012.011.008.043.016.086-.355-.028-.668-.165-.988-.282Zm1.523.328c-.16-.02-.351-.117-.379-.296-.129-.75-.16-1.508-.215-2.262-.011-.14.07-.176.192-.172.117.008.23.004.344.004.5.027.504.027.457.55a15.684 15.684 0 0 1-.27 1.907c-.02.098.031.289-.129.27Zm.254.633c-.062.004-.18.055-.168-.09.008-.117.078-.156.188-.132a.77.77 0 0 1 .37.156c-.144.094-.273.066-.39.066Zm3.324-3.351c.102-.141.211-.192.367-.086.028.02.067.023.102.031.66.156.648.152.395.77-.239.585-.59 1.019-1.22 1.246-.757.277-1.5.582-2.312.68 1.075-.712 1.93-1.614 2.668-2.641Zm-2.125 2.789c.735-.25 1.47-.512 2.188-.813-.508.91-1.418.653-2.188.813Zm2.13-.149c.827-.254 1.64-.543 2.44-.867-.722.543-1.562.758-2.44.867Zm2.597-1.156c-.832.406-1.688.742-2.621.969.304-.516.68-.875 1.18-1.125.331-.164.628-.41.94-.621.216-.145.481-.028.665.293.137.226.078.367-.164.484Zm1.176-.691c-.106.07-.22.129-.32.207-.255.191-.462.28-.622-.121-.062-.157-.25-.262-.37-.38.796-.886 1.702-1.562 2.905-1.667-.14.453-1.07 1.605-1.593 1.96Zm1.117-.899c.484-.558.652-1.422 1.531-1.562-.113.297-.992 1.226-1.531 1.562Zm2.324-2.535c-.3.516-.785.773-1.309.988.329-.738.618-1.472.82-2.238.04-.14.087-.133.188-.066.465.297.578.84.301 1.316Zm-.258-1.469c-.105-.082-.12-.164-.101-.293.152-.96.343-1.91.66-2.832.035-.101.07-.199.191-.258a4.008 4.008 0 0 0 1.403-1.074c-.137 1.946-.606 3.68-1.555 5.36a1.694 1.694 0 0 0-.598-.903Zm0 0"
        />
      </g>
    </g>
  </g>
  <path
    fill="currentColor"
    d="M289.48 161.924c-1.043 1.563-2.497 3.328-4.36 5.297l-2.781-.969a75.886 75.886 0 0 0 3.5-5.906l3.547 1.234Zm0 0"
  />
  <path
    fill="#9333ea"
    d="M106.266 213.064h-1.59v-6.36h-1.59v6.36h-1.59v-6.36h-1.59v6.36c0 .875.715 1.59 1.59 1.59h4.77c.875 0 1.59-.715 1.59-1.59v-6.36h-1.59Zm16.198-6.359h-6.36c-.874 0-1.589.715-1.589 1.59v4.77c0 .874.715 1.589 1.59 1.589h6.36v-1.59h-6.36v-1.59h6.36v-1.59h-6.36v-1.59h6.36Zm14.609 1.59c0-.864-.707-1.59-1.59-1.59h-6.36v7.949h6.36c.883 0 1.59-.727 1.59-1.59v-1.59a.8.8 0 0 0-.797-.797.797.797 0 0 0 .797-.793Zm-1.59 0v1.59h-4.77v-1.59Zm-4.77 4.77v-1.59h4.77v1.59Zm29.614 1.589c.875 0 1.59-.715 1.59-1.59v-4.77c0-.874-.715-1.59-1.59-1.59h-6.36v7.95Zm-4.77-6.36h4.77v4.77h-4.77Zm20.968-1.589h-6.359c-.875 0-1.59.715-1.59 1.59v4.77c0 .874.715 1.589 1.59 1.589h6.36v-1.59h-6.36v-1.59h6.36v-1.59h-6.36v-1.59h6.36Zm10.632 7.949c.348 0 .707-.129.996-.379l2.684-2.305a.82.82 0 0 0 .285-.636l.012-4.63h-1.59v4.274l-2.387 2.055-2.383-2.055v-4.273h-1.59v4.629c0 .25.11.468.298.636l2.683 2.305c.297.25.645.379.992.379Zm18.585-7.949h-6.36c-.874 0-1.589.715-1.589 1.59v4.77c0 .874.715 1.589 1.59 1.589h6.36v-1.59h-6.36v-1.59h6.36v-1.59h-6.36v-1.59h6.36Zm14.608 7.949v-1.59h-6.359v-6.36h-1.59v6.36c0 .875.715 1.59 1.59 1.59Zm13.02 0c.882 0 1.59-.727 1.59-1.59v-4.77c0-.874-.716-1.59-1.59-1.59h-4.77c-.875 0-1.59.716-1.59 1.59v4.77c0 .875.715 1.59 1.59 1.59Zm-4.77-6.36h4.77v4.77h-4.77Zm19.378-1.589h-6.36v7.949h1.59v-3.18h4.77c.875 0 1.59-.715 1.59-1.59v-1.59c0-.874-.715-1.59-1.59-1.59Zm-4.77 3.18v-1.59h4.77v1.59Zm20.968-3.181h-6.36c-.875 0-1.59.716-1.59 1.59v4.77c0 .875.715 1.59 1.59 1.59h6.36v-1.59h-6.36v-1.59h6.36v-1.59h-6.36v-1.59h6.36Zm14.608 1.591c0-.875-.714-1.59-1.59-1.59h-6.359v7.949h1.59v-3.18h.934l2.941 2.942c.16.16.36.238.578.238h1.906v-1.59h-1.59l-1.59-1.59h1.59c.876 0 1.59-.715 1.59-1.59Zm-1.59 0v1.59h-4.769v-1.59Zm0 0"
  />
</svg>